<svg xmlns="http://www.w3.org/2000/svg" width="175" height="42" viewBox="0 0 175 42">
  <path fill="#292636" d="M5.166 35.665L4.419 35.944C4.194 35.107 3.663 34.684 2.862 34.684 1.602 34.684.81 35.593.81 37.195.81 38.869 1.62 39.904 2.862 39.904 3.645 39.904 4.32 39.526 4.536 38.581L5.292 38.851C4.887 40.048 3.96 40.606 2.79 40.606 1.062 40.606-3.12638804e-13 39.328-3.12638804e-13 37.267-3.12638804e-13 35.143 1.188 34 2.862 34 3.996 34 4.86 34.567 5.166 35.665zM7.29399995 36.034L7.99599995 36.034 7.99599995 38.698C7.99599995 39.031 8.04099995 39.337 8.17599995 39.553 8.31999995 39.778 8.59899995 39.922 8.95899995 39.922 9.27399995 39.922 9.56199995 39.778 9.75999995 39.562 10.003 39.292 10.147 38.905 10.147 38.482L10.147 36.034 10.858 36.034 10.858 40.48 10.147 40.48 10.147 39.823C9.82299995 40.255 9.34599995 40.552 8.72499995 40.552 8.18499995 40.552 7.80699995 40.354 7.56399995 40.021 7.36599995 39.742 7.29399995 39.292 7.29399995 38.86L7.29399995 36.034zM14.1109999 40.48L13.3999999 40.48 13.3999999 36.034 14.0749999 36.034 14.0749999 36.754C14.3449999 36.223 14.7499999 35.98 15.3349999 35.98 15.4879999 35.98 15.5869999 35.998 15.7399999 36.034L15.7399999 36.79C15.5959999 36.709 15.4519999 36.673 15.2539999 36.673 14.8489999 36.673 14.4979999 36.835 14.2819999 37.24 14.1739999 37.438 14.1109999 37.78 14.1109999 38.257L14.1109999 40.48zM19.9829999 37.753L19.9829999 37.384C19.9829999 36.808 19.6769999 36.52 19.0649999 36.52 18.3809999 36.52 18.0749999 36.808 18.0209999 37.438L17.3099999 37.357C17.3819999 36.43 18.0929999 35.917 19.1009999 35.917 19.6589999 35.917 20.0729999 36.07 20.3339999 36.358 20.5769999 36.61 20.6669999 36.988 20.6669999 37.663L20.6669999 39.094C20.6669999 39.283 20.6759999 39.562 20.6939999 39.688 20.7209999 39.877 20.8469999 39.949 21.0719999 39.949 21.1259999 39.949 21.1889999 39.94 21.2429999 39.931L21.2429999 40.471C21.1259999 40.489 20.9909999 40.498 20.8739999 40.498 20.2799999 40.498 20.0549999 40.273 20.0099999 39.814 19.7039999 40.291 19.1819999 40.552 18.5339999 40.552 17.7599999 40.552 17.1479999 40.048 17.1479999 39.301 17.1479999 38.698 17.4629999 38.338 17.9759999 38.113 18.3719999 37.942 19.1549999 37.807 19.9829999 37.753zM19.9829999 38.509L19.9829999 38.275C19.5239999 38.293 18.7589999 38.392 18.3719999 38.563 18.0029999 38.725 17.8499999 38.95 17.8499999 39.265 17.8499999 39.742 18.1829999 39.976 18.6869999 39.976 19.2809999 39.976 19.7849999 39.598 19.9289999 39.004 19.9649999 38.851 19.9829999 38.644 19.9829999 38.509zM25.0179998 39.859L25.0179998 40.453C24.8379998 40.516 24.5859998 40.543 24.4059998 40.543 23.8029998 40.543 23.3979998 40.327 23.3979998 39.427L23.3979998 36.628 22.6059998 36.628 22.6059998 36.034 23.4069998 36.034 23.4069998 34.594 24.1089998 34.594 24.1089998 36.034 24.9999998 36.034 24.9999998 36.628 24.1089998 36.628 24.1089998 39.247C24.1089998 39.742 24.2529998 39.949 24.6129998 39.949 24.7479998 39.949 24.8559998 39.922 25.0179998 39.859zM30.0979998 39.121L30.7279998 39.328C30.4669998 40.138 29.7379998 40.588 28.8829998 40.588 27.4969998 40.588 26.7769998 39.643 26.7769998 38.203 26.7769998 36.808 27.6139998 35.917 28.8379998 35.917 30.0619998 35.917 30.7279998 36.763 30.7369998 38.365L27.4969998 38.365C27.4969998 39.337 27.9919998 39.985 28.9009998 39.985 29.4409998 39.985 29.9179998 39.787 30.0979998 39.121zM30.0079998 37.807C29.9449998 36.862 29.4769998 36.502 28.8199998 36.502 28.1449998 36.502 27.6049998 36.907 27.5059998 37.807L30.0079998 37.807zM36.5819997 40.48L35.8709997 40.48 35.8709997 39.814C35.5379997 40.282 35.0969997 40.561 34.4309997 40.561 33.3959997 40.561 32.7209997 39.688 32.7209997 38.257 32.7209997 36.817 33.5399997 35.962 34.5389997 35.962 35.2859997 35.962 35.6279997 36.241 35.8709997 36.61L35.8709997 34.126 36.5819997 34.126 36.5819997 40.48zM35.8799997 38.329C35.8799997 37.195 35.4209997 36.574 34.6469997 36.574 33.8909997 36.574 33.4589997 37.168 33.4589997 38.266 33.4589997 39.337 33.9089997 39.949 34.6109997 39.949 35.3579997 39.949 35.8799997 39.319 35.8799997 38.329zM51.7049996 40.48L50.9759996 40.48C50.9849996 37.447 50.9759996 36.205 51.0209996 34.882 50.4989996 36.403 50.3189996 36.862 49.0049996 40.48L48.3839996 40.48C47.7089996 38.626 46.9619996 36.745 46.3589996 34.909 46.3949996 36.394 46.4039996 37.402 46.4039996 40.48L45.6749996 40.48 45.6749996 34.126 46.7729996 34.126C47.4299996 35.881 48.1139996 37.636 48.7079996 39.391 49.2569996 37.708 49.5989996 36.898 50.5889996 34.126L51.7049996 34.126 51.7049996 40.48zM56.1009995 40.588C54.7509995 40.588 54.0309995 39.67 54.0309995 38.23 54.0309995 36.808 54.8319995 35.917 56.1549995 35.917 57.4059995 35.917 58.1529995 36.817 58.1529995 38.284 58.1529995 39.697 57.3609995 40.588 56.1009995 40.588zM57.4149995 38.284C57.4149995 37.195 56.9289995 36.52 56.1279995 36.52 55.2999995 36.52 54.7689995 37.168 54.7689995 38.176 54.7689995 39.301 55.2909995 39.985 56.0919995 39.985 56.9019995 39.985 57.4149995 39.346 57.4149995 38.284zM64.0159995 40.48L63.3049995 40.48 63.3049995 39.814C62.9719995 40.282 62.5309995 40.561 61.8649995 40.561 60.8299995 40.561 60.1549995 39.688 60.1549995 38.257 60.1549995 36.817 60.9739995 35.962 61.9729995 35.962 62.7199995 35.962 63.0619995 36.241 63.3049995 36.61L63.3049995 34.126 64.0159995 34.126 64.0159995 40.48zM63.3139995 38.329C63.3139995 37.195 62.8549995 36.574 62.0809995 36.574 61.3249995 36.574 60.8929995 37.168 60.8929995 38.266 60.8929995 39.337 61.3429995 39.949 62.0449995 39.949 62.7919995 39.949 63.3139995 39.319 63.3139995 38.329zM69.5999994 39.121L70.2299994 39.328C69.9689994 40.138 69.2399994 40.588 68.3849994 40.588 66.9989994 40.588 66.2789994 39.643 66.2789994 38.203 66.2789994 36.808 67.1159994 35.917 68.3399994 35.917 69.5639994 35.917 70.2299994 36.763 70.2389994 38.365L66.9989994 38.365C66.9989994 39.337 67.4939994 39.985 68.4029994 39.985 68.9429994 39.985 69.4199994 39.787 69.5999994 39.121zM69.5099994 37.807C69.4469994 36.862 68.9789994 36.502 68.3219994 36.502 67.6469994 36.502 67.1069994 36.907 67.0079994 37.807L69.5099994 37.807zM73.2039994 40.48L72.4929994 40.48 72.4929994 36.034 73.1679994 36.034 73.1679994 36.754C73.4379994 36.223 73.8429994 35.98 74.4279994 35.98 74.5809994 35.98 74.6799994 35.998 74.8329994 36.034L74.8329994 36.79C74.6889994 36.709 74.5449994 36.673 74.3469994 36.673 73.9419994 36.673 73.5909994 36.835 73.3749994 37.24 73.2669994 37.438 73.2039994 37.78 73.2039994 38.257L73.2039994 40.48zM80.3539993 40.48L79.6519993 40.48 79.6519993 37.798C79.6519993 37.438 79.6159993 37.132 79.4719993 36.916 79.3369993 36.709 79.1029993 36.592 78.7339993 36.592 78.4369993 36.592 78.0859993 36.745 77.8339993 37.051 77.5189993 37.429 77.5009993 37.897 77.5009993 38.347L77.5009993 40.48 76.7899993 40.48 76.7899993 36.034 77.5009993 36.034 77.5009993 36.727C77.8069993 36.25 78.3739993 35.962 78.9949993 35.962 79.5889993 35.962 79.9309993 36.196 80.1469993 36.556 80.3089993 36.826 80.3539993 37.15 80.3539993 37.762L80.3539993 40.48zM89.4019992 34.126L91.9129992 34.126C92.5879992 34.126 92.9569992 34.189 93.2539992 34.369 93.6679992 34.612 93.9109992 35.089 93.9109992 35.656 93.9109992 36.34 93.5599992 36.88 92.8219992 37.078 93.7039992 37.222 94.1449992 37.87 94.1449992 38.707 94.1449992 39.4 93.8479992 39.94 93.3349992 40.219 92.9569992 40.417 92.5159992 40.48 91.6159992 40.48L89.4019992 40.48 89.4019992 34.126zM90.1759992 34.801L90.1759992 36.781 91.6159992 36.781C91.9759992 36.781 92.4439992 36.718 92.6239992 36.628 92.9479992 36.466 93.1369992 36.151 93.1369992 35.737 93.1369992 35.467 93.0469992 35.251 92.8939992 35.08 92.6689992 34.837 92.3719992 34.801 91.6969992 34.801L90.1759992 34.801zM90.1759992 37.456L90.1759992 39.796 91.4809992 39.796C91.8949992 39.796 92.3809992 39.796 92.7139992 39.661 93.1009992 39.508 93.3439992 39.175 93.3439992 38.68 93.3439992 37.888 92.7949992 37.456 91.8769992 37.456L90.1759992 37.456zM96.3719991 36.034L97.0739991 36.034 97.0739991 38.698C97.0739991 39.031 97.1189991 39.337 97.2539991 39.553 97.3979991 39.778 97.6769991 39.922 98.0369991 39.922 98.3519991 39.922 98.6399991 39.778 98.8379991 39.562 99.0809991 39.292 99.2249991 38.905 99.2249991 38.482L99.2249991 36.034 99.9359991 36.034 99.9359991 40.48 99.2249991 40.48 99.2249991 39.823C98.9009991 40.255 98.4239991 40.552 97.8029991 40.552 97.2629991 40.552 96.8849991 40.354 96.6419991 40.021 96.4439991 39.742 96.3719991 39.292 96.3719991 38.86L96.3719991 36.034zM102.036999 39.418L102.693999 39.112C102.864999 39.67 103.278999 40.003 103.845999 40.003 104.403999 40.003 104.790999 39.769 104.790999 39.373 104.790999 38.968 104.592999 38.824 103.854999 38.572L103.377999 38.41C102.648999 38.167 102.270999 37.762 102.270999 37.141 102.270999 36.475 102.900999 35.908 103.863999 35.908 104.583999 35.908 105.186999 36.223 105.501999 36.97L104.853999 37.258C104.718999 36.808 104.394999 36.475 103.854999 36.475 103.260999 36.475 102.963999 36.754 102.963999 37.096 102.963999 37.456 103.161999 37.627 103.800999 37.825L104.232999 37.96C104.961999 38.185 105.501999 38.509 105.501999 39.265 105.501999 40.057 104.844999 40.588 103.845999 40.588 102.828999 40.588 102.279999 40.03 102.036999 39.418zM108.412999 40.48L107.701999 40.48 107.701999 36.034 108.412999 36.034 108.412999 40.48zM108.421999 34.927L107.692999 34.927 107.692999 34.126 108.421999 34.126 108.421999 34.927zM114.518999 40.48L113.816999 40.48 113.816999 37.798C113.816999 37.438 113.780999 37.132 113.636999 36.916 113.501999 36.709 113.267999 36.592 112.898999 36.592 112.601999 36.592 112.250999 36.745 111.998999 37.051 111.683999 37.429 111.665999 37.897 111.665999 38.347L111.665999 40.48 110.954999 40.48 110.954999 36.034 111.665999 36.034 111.665999 36.727C111.971999 36.25 112.538999 35.962 113.159999 35.962 113.753999 35.962 114.095999 36.196 114.311999 36.556 114.473999 36.826 114.518999 37.15 114.518999 37.762L114.518999 40.48zM120.057999 39.121L120.687999 39.328C120.426999 40.138 119.697999 40.588 118.842999 40.588 117.456999 40.588 116.736999 39.643 116.736999 38.203 116.736999 36.808 117.573999 35.917 118.797999 35.917 120.021999 35.917 120.687999 36.763 120.696999 38.365L117.456999 38.365C117.456999 39.337 117.951999 39.985 118.860999 39.985 119.400999 39.985 119.877999 39.787 120.057999 39.121zM119.967999 37.807C119.904999 36.862 119.436999 36.502 118.779999 36.502 118.104999 36.502 117.564999 36.907 117.465999 37.807L119.967999 37.807zM122.509999 39.418L123.166999 39.112C123.337999 39.67 123.751999 40.003 124.318999 40.003 124.876999 40.003 125.263999 39.769 125.263999 39.373 125.263999 38.968 125.065999 38.824 124.327999 38.572L123.850999 38.41C123.121999 38.167 122.743999 37.762 122.743999 37.141 122.743999 36.475 123.373999 35.908 124.336999 35.908 125.056999 35.908 125.659999 36.223 125.974999 36.97L125.326999 37.258C125.191999 36.808 124.867999 36.475 124.327999 36.475 123.733999 36.475 123.436999 36.754 123.436999 37.096 123.436999 37.456 123.634999 37.627 124.273999 37.825L124.705999 37.96C125.434999 38.185 125.974999 38.509 125.974999 39.265 125.974999 40.057 125.317999 40.588 124.318999 40.588 123.301999 40.588 122.752999 40.03 122.509999 39.418zM127.733999 39.418L128.390999 39.112C128.561999 39.67 128.975999 40.003 129.542999 40.003 130.100999 40.003 130.487999 39.769 130.487999 39.373 130.487999 38.968 130.289999 38.824 129.551999 38.572L129.074999 38.41C128.345999 38.167 127.967999 37.762 127.967999 37.141 127.967999 36.475 128.597999 35.908 129.560999 35.908 130.280999 35.908 130.883999 36.223 131.198999 36.97L130.550999 37.258C130.415999 36.808 130.091999 36.475 129.551999 36.475 128.957999 36.475 128.660999 36.754 128.660999 37.096 128.660999 37.456 128.858999 37.627 129.497999 37.825L129.929999 37.96C130.658999 38.185 131.198999 38.509 131.198999 39.265 131.198999 40.057 130.541999 40.588 129.542999 40.588 128.525999 40.588 127.976999 40.03 127.733999 39.418zM139.481999 38.905L140.201999 38.572C140.507999 39.463 141.038999 39.94 141.947999 39.94 142.802999 39.94 143.414999 39.535 143.414999 38.824 143.414999 38.239 143.117999 38.014 142.073999 37.672L141.551999 37.501C140.363999 37.114 139.814999 36.628 139.814999 35.719 139.814999 34.693 140.750999 34 141.911999 34 142.964999 34 143.819999 34.45 144.215999 35.413L143.522999 35.755C143.243999 34.972 142.649999 34.648 141.947999 34.648 141.074999 34.648 140.606999 35.08 140.606999 35.665 140.606999 36.223 140.948999 36.43 141.974999 36.772L142.514999 36.952C143.711999 37.348 144.233999 37.825 144.233999 38.779 144.233999 39.913 143.252999 40.615 141.947999 40.615 140.660999 40.615 139.877999 39.958 139.481999 38.905zM148.404999 39.859L148.404999 40.453C148.224999 40.516 147.972999 40.543 147.792999 40.543 147.189999 40.543 146.784999 40.327 146.784999 39.427L146.784999 36.628 145.992999 36.628 145.992999 36.034 146.793999 36.034 146.793999 34.594 147.495999 34.594 147.495999 36.034 148.386999 36.034 148.386999 36.628 147.495999 36.628 147.495999 39.247C147.495999 39.742 147.639999 39.949 147.999999 39.949 148.134999 39.949 148.242999 39.922 148.404999 39.859zM152.233999 40.588C150.883999 40.588 150.163999 39.67 150.163999 38.23 150.163999 36.808 150.964999 35.917 152.287999 35.917 153.538999 35.917 154.285999 36.817 154.285999 38.284 154.285999 39.697 153.493999 40.588 152.233999 40.588zM153.547999 38.284C153.547999 37.195 153.061999 36.52 152.260999 36.52 151.432999 36.52 150.901999 37.168 150.901999 38.176 150.901999 39.301 151.423999 39.985 152.224999 39.985 153.034999 39.985 153.547999 39.346 153.547999 38.284zM157.268999 40.48L156.557999 40.48 156.557999 36.034 157.232999 36.034 157.232999 36.754C157.502999 36.223 157.907999 35.98 158.492999 35.98 158.645999 35.98 158.744999 35.998 158.897999 36.034L158.897999 36.79C158.753999 36.709 158.609999 36.673 158.411999 36.673 158.006999 36.673 157.655999 36.835 157.439999 37.24 157.331999 37.438 157.268999 37.78 157.268999 38.257L157.268999 40.48zM161.565999 40.48L160.854999 40.48 160.854999 36.034 161.565999 36.034 161.565999 40.48zM161.574999 34.927L160.845999 34.927 160.845999 34.126 161.574999 34.126 161.574999 34.927zM167.158998 39.121L167.788998 39.328C167.527998 40.138 166.798998 40.588 165.943998 40.588 164.557998 40.588 163.837998 39.643 163.837998 38.203 163.837998 36.808 164.674998 35.917 165.898998 35.917 167.122998 35.917 167.788998 36.763 167.797998 38.365L164.557998 38.365C164.557998 39.337 165.052998 39.985 165.961998 39.985 166.501998 39.985 166.978998 39.787 167.158998 39.121zM167.068998 37.807C167.005998 36.862 166.537998 36.502 165.880998 36.502 165.205998 36.502 164.665998 36.907 164.566998 37.807L167.068998 37.807zM169.610998 39.418L170.267998 39.112C170.438998 39.67 170.852998 40.003 171.419998 40.003 171.977998 40.003 172.364998 39.769 172.364998 39.373 172.364998 38.968 172.166998 38.824 171.428998 38.572L170.951998 38.41C170.222998 38.167 169.844998 37.762 169.844998 37.141 169.844998 36.475 170.474998 35.908 171.437998 35.908 172.157998 35.908 172.760998 36.223 173.075998 36.97L172.427998 37.258C172.292998 36.808 171.968998 36.475 171.428998 36.475 170.834998 36.475 170.537998 36.754 170.537998 37.096 170.537998 37.456 170.735998 37.627 171.374998 37.825L171.806998 37.96C172.535998 38.185 173.075998 38.509 173.075998 39.265 173.075998 40.057 172.418998 40.588 171.419998 40.588 170.402998 40.588 169.853998 40.03 169.610998 39.418zM15.8 24.48L.636 24.48.636.476 3.526.476 3.526 21.828 15.8 21.828 15.8 24.48zM28.639473 24.956C25.749473 24.956 23.675473 24.242 21.805473 22.576 19.255473 20.332 17.827473 16.558 17.827473 12.24 17.827473 4.76 21.975473 1.19015908e-13 28.503473 1.19015908e-13 31.699473 1.19015908e-13 34.147473 1.088 35.949473 3.264 37.887473 5.644 38.907473 8.908 38.907473 12.648 38.907473 20.23 34.963473 24.956 28.639473 24.956zM35.813473 12.648C35.813473 6.392 32.923473 2.584 28.435473 2.584 23.845473 2.584 20.887473 6.188 20.887473 12.138 20.887473 18.428 23.913473 22.304 28.571473 22.304 32.957473 22.304 35.813473 18.666 35.813473 12.648zM44.810946.476L54.296946.476C56.846946.476 58.240946.714 59.362946 1.394 60.926946 2.312 61.844946 4.114 61.844946 6.256 61.844946 8.84 60.518946 10.88 57.730946 11.628 61.062946 12.172 62.728946 14.62 62.728946 17.782 62.728946 20.4 61.606946 22.44 59.668946 23.494 58.240946 24.242 56.574946 24.48 53.174946 24.48L44.810946 24.48 44.810946.476zM47.734946 3.026L47.734946 10.506 53.174946 10.506C54.534946 10.506 56.302946 10.268 56.982946 9.928 58.206946 9.316 58.920946 8.126 58.920946 6.562 58.920946 5.542 58.580946 4.726 58.002946 4.08 57.152946 3.162 56.030946 3.026 53.480946 3.026L47.734946 3.026zM47.734946 13.056L47.734946 21.896 52.664946 21.896C54.228946 21.896 56.064946 21.896 57.322946 21.386 58.784946 20.808 59.702946 19.55 59.702946 17.68 59.702946 14.688 57.628946 13.056 54.160946 13.056L47.734946 13.056zM66.626419 18.53L69.346419 17.272C70.502419 20.638 72.508419 22.44 75.942419 22.44 79.172419 22.44 81.484419 20.91 81.484419 18.224 81.484419 16.014 80.362419 15.164 76.418419 13.872L74.446419 13.226C69.958419 11.764 67.884419 9.928 67.884419 6.494 67.884419 2.618 71.420419 1.19015908e-13 75.806419 1.19015908e-13 79.784419 1.19015908e-13 83.014419 1.7 84.510419 5.338L81.892419 6.63C80.838419 3.672 78.594419 2.448 75.942419 2.448 72.644419 2.448 70.876419 4.08 70.876419 6.29 70.876419 8.398 72.168419 9.18 76.044419 10.472L78.084419 11.152C82.606419 12.648 84.578419 14.45 84.578419 18.054 84.578419 22.338 80.872419 24.99 75.942419 24.99 71.080419 24.99 68.122419 22.508 66.626419 18.53zM97.689892 24.48L94.731892 24.48 94.731892 3.128 87.591892 3.128 87.591892.476 104.863892.476 104.863892 3.128 97.689892 3.128 97.689892 24.48zM126.577365 24.48L110.053365 24.48 110.053365.476 125.795365.476 125.795365 3.128 113.011365 3.128 113.011365 10.812 124.673365 10.812 124.673365 13.43 113.011365 13.43 113.011365 21.828 126.577365 21.828 126.577365 24.48zM150.024838 24.48L146.590838 24.48 139.790838 14.314 134.588838 14.314 134.588838 24.48 131.732838 24.48 131.732838.476 139.110838.476C141.626838.476 143.734838.476 145.536838 1.19 147.780838 2.074 149.242838 4.386 149.242838 7.242 149.242838 10.914 146.964838 13.362 142.714838 13.94L150.024838 24.48zM134.588838 11.764L139.892838 11.764C144.142838 11.764 146.216838 10.404 146.216838 7.208 146.216838 5.814 145.672838 4.658 144.754838 3.944 143.802838 3.162 142.476838 3.026 139.824838 3.026L134.588838 3.026 134.588838 11.764zM173.370311 24.48L169.936311 24.48 163.136311 14.314 157.934311 14.314 157.934311 24.48 155.078311 24.48 155.078311.476 162.456311.476C164.972311.476 167.080311.476 168.882311 1.19 171.126311 2.074 172.588311 4.386 172.588311 7.242 172.588311 10.914 170.310311 13.362 166.060311 13.94L173.370311 24.48zM157.934311 11.764L163.238311 11.764C167.488311 11.764 169.562311 10.404 169.562311 7.208 169.562311 5.814 169.018311 4.658 168.100311 3.944 167.148311 3.162 165.822311 3.026 163.170311 3.026L157.934311 3.026 157.934311 11.764z" transform="translate(.914 .52)"/>
</svg>
