<svg xmlns="http://www.w3.org/2000/svg" xmlns:xlink="http://www.w3.org/1999/xlink" width="457" height="123" viewBox="0 0 457 123">
  <defs>
    <polygon id="group-9-copy-3-a" points=".883 .959 59.921 .959 59.921 87.085 .883 87.085"/>
    <polygon id="group-9-copy-3-c" points=".353 .959 46.195 .959 46.195 87.085 .353 87.085"/>
    <polygon id="group-9-copy-3-e" points="0 123 456.737 123 456.737 .959 0 .959"/>
  </defs>
  <g fill="none" fill-rule="evenodd" transform="translate(0 -1)">
    <polygon fill="#292636" points="0 3.084 0 85.042 36.581 85.042 36.581 72.193 14.007 72.193 14.007 3.084"/>
    <g transform="translate(0 .041)">
      <g transform="translate(44)">
        <mask id="group-9-copy-3-b" fill="#fff">
          <use xlink:href="#group-9-copy-3-a"/>
        </mask>
        <path fill="#292636" d="M45.5669,43.906 C45.5669,39.739 45.2369,35.823 44.5829,32.156 C43.9259,28.492 42.9619,25.326 41.6889,22.664 C40.4159,20.001 38.8329,17.9 36.9419,16.355 C35.0499,14.812 32.8709,14.04 30.4019,14.04 C27.8559,14.04 25.6359,14.812 23.7459,16.355 C21.8539,17.9 20.2729,20.001 18.9999,22.664 C17.7259,25.326 16.7799,28.492 16.1639,32.156 C15.5449,35.823 15.2369,39.739 15.2369,43.906 C15.2369,48.073 15.5449,51.991 16.1639,55.656 C16.7799,59.322 17.7259,62.506 18.9999,65.206 C20.2729,67.908 21.8539,70.03 23.7459,71.573 C25.6359,73.117 27.8559,73.888 30.4019,73.888 C32.9489,73.888 35.1669,73.117 37.0579,71.573 C38.9479,70.03 40.5309,67.908 41.8039,65.206 C43.0779,62.506 44.0219,59.322 44.6409,55.656 C45.2569,51.991 45.5669,48.073 45.5669,43.906 M59.9209,43.906 C59.9209,50.389 59.2449,56.274 57.8949,61.56 C56.5439,66.846 54.5959,71.381 52.0489,75.161 C49.5029,78.944 46.3949,81.876 42.7309,83.959 C39.0639,86.043 34.9549,87.085 30.4019,87.085 C25.7719,87.085 21.6419,86.043 18.0159,83.959 C14.3869,81.876 11.3009,78.944 8.7549,75.161 C6.2079,71.381 4.2579,66.846 2.9089,61.56 C1.5579,56.274 0.8829,50.389 0.8829,43.906 C0.8829,37.424 1.5379,31.559 2.8509,26.31 C4.1619,21.063 6.0919,16.549 8.6389,12.766 C11.1859,8.986 14.2919,6.072 17.9579,4.027 C21.6219,1.983 25.7719,0.959 30.4019,0.959 C34.9549,0.959 39.0639,1.983 42.7309,4.027 C46.3949,6.072 49.5029,8.986 52.0489,12.766 C54.5959,16.549 56.5439,21.063 57.8949,26.31 C59.2449,31.559 59.9209,37.424 59.9209,43.906" mask="url(#group-9-copy-3-b)"/>
      </g>
      <path fill="#292636" d="M152.623,60.9231 C152.623,58.5321 152.238,56.5061 151.471,54.8451 C150.704,53.1871 149.706,51.8361 148.477,50.7941 C147.249,49.7521 145.907,49.0001 144.449,48.5361 C142.991,48.0731 141.532,47.8421 140.074,47.8421 L131.67,47.8421 L131.67,73.4251 L140.419,73.4251 C142.108,73.4251 143.682,73.1751 145.14,72.6731 C146.598,72.1721 147.882,71.3991 148.997,70.3581 C150.109,69.3161 150.991,68.0241 151.644,66.4791 C152.295,64.9371 152.623,63.0841 152.623,60.9231 M150.655,25.8471 C150.655,23.7631 150.328,22.0091 149.676,20.5801 C149.025,19.1531 148.181,17.9951 147.146,17.1071 C146.109,16.2211 144.901,15.5841 143.521,15.1971 C142.139,14.8121 140.721,14.6181 139.263,14.6181 L131.67,14.6181 L131.67,37.4231 L139.495,37.4231 C140.875,37.4231 142.237,37.2121 143.579,36.7871 C144.921,36.3631 146.109,35.6871 147.146,34.7611 C148.181,33.8351 149.025,32.6391 149.676,31.1721 C150.328,29.7071 150.655,27.9311 150.655,25.8471 M165.936,62.0801 C165.936,66.4031 165.221,70.0101 163.794,72.9041 C162.365,75.7981 160.553,78.1531 158.353,79.9651 C156.154,81.7801 153.683,83.0731 150.944,83.8431 C148.204,84.6161 145.521,85.0011 142.899,85.0011 L118.589,85.0011 L118.589,3.0421 L140.352,3.0421 C142.744,3.0421 145.29,3.3321 147.993,3.9101 C150.693,4.4891 153.162,5.5311 155.401,7.0361 C157.639,8.5411 159.491,10.6251 160.957,13.2871 C162.423,15.9501 163.157,19.4041 163.157,23.6481 C163.157,28.7411 162.076,32.7551 159.916,35.6871 C157.754,38.6211 155.246,40.6651 152.392,41.8221 L152.392,42.0541 C153.934,42.4411 155.497,43.0961 157.08,44.0221 C158.661,44.9481 160.107,46.2411 161.421,47.9001 C162.732,49.5601 163.812,51.5661 164.662,53.9191 C165.51,56.2741 165.936,58.9951 165.936,62.0801"/>
      <g transform="translate(176)">
        <mask id="group-9-copy-3-d" fill="#fff">
          <use xlink:href="#group-9-copy-3-c"/>
        </mask>
        <path fill="#292636" d="M38.5542,18.9016 C35.5442,15.2756 31.7622,13.4606 27.2102,13.4606 C25.8962,13.4606 24.6232,13.6746 23.3892,14.0976 C22.1542,14.5226 21.0342,15.1976 20.0332,16.1236 C19.0292,17.0496 18.2382,18.2466 17.6592,19.7126 C17.0802,21.1786 16.7912,22.9156 16.7912,24.9216 C16.7912,28.3946 17.8332,31.0766 19.9172,32.9666 C22.0002,34.8586 24.7392,36.6526 28.1362,38.3496 C30.1422,39.3536 32.1872,40.5106 34.2712,41.8226 C36.3552,43.1356 38.2452,44.7166 39.9432,46.5686 C41.6402,48.4206 43.0292,50.6206 44.1112,53.1666 C45.1912,55.7136 45.7312,58.7236 45.7312,62.1966 C45.7312,66.2096 45.0952,69.7606 43.8222,72.8466 C42.5482,75.9336 40.8492,78.5386 38.7282,80.6606 C36.6042,82.7836 34.1162,84.3846 31.2622,85.4646 C28.4052,86.5446 25.3952,87.0846 22.2322,87.0846 C17.6782,87.0846 13.4722,86.1966 9.6142,84.4226 C5.7542,82.6486 2.6682,80.4106 0.3532,77.7086 L7.8782,67.5216 C9.6522,69.6826 11.7942,71.3816 14.3032,72.6146 C16.8092,73.8506 19.3762,74.4666 22.0002,74.4666 C24.9322,74.4666 27.3642,73.4646 29.2932,71.4576 C31.2212,69.4516 32.1872,66.6346 32.1872,63.0066 C32.1872,59.4576 31.0302,56.6396 28.7152,54.5556 C26.3992,52.4726 23.4662,50.5446 19.9172,48.7676 C17.6782,47.6886 15.5752,46.4926 13.6082,45.1796 C11.6402,43.8676 9.9042,42.3056 8.3992,40.4906 C6.8942,38.6786 5.6962,36.5556 4.8102,34.1246 C3.9222,31.6936 3.4792,28.7806 3.4792,25.3846 C3.4792,21.1406 4.1532,17.4946 5.5052,14.4446 C6.8542,11.3976 8.6302,8.8706 10.8292,6.8626 C13.0292,4.8566 15.5182,3.3716 18.2962,2.4056 C21.0752,1.4416 23.8902,0.9586 26.7462,0.9586 C30.9142,0.9586 34.6372,1.6346 37.9182,2.9846 C41.1972,4.3356 43.9552,6.3236 46.1952,8.9456 L38.5542,18.9016 Z" mask="url(#group-9-copy-3-d)"/>
      </g>
      <polygon fill="#292636" points="262.478 14.85 262.478 85.001 248.819 85.001 248.819 14.85 232.881 14.85 232.881 3.042 278.281 3.042 278.281 14.85"/>
      <polygon fill="#292636" points="291.997 85.001 291.997 3.042 328.693 3.042 328.693 15.313 305.31 15.313 305.31 37.076 326.956 37.076 326.956 48.42 305.31 48.42 305.31 72.615 329.851 72.615 329.851 85.001"/>
      <path fill="#292636" d="M379.1631 27.1208C379.1631 24.6518 378.8161 22.6058 378.1211 20.9858 377.4271 19.3648 376.5181 18.0918 375.4011 17.1648 374.2811 16.2388 373.0281 15.5838 371.6391 15.1978 370.2491 14.8118 368.8601 14.6188 367.4711 14.6188L359.6001 14.6188 359.6001 39.8538 367.4711 39.8538C370.8661 39.8538 373.6641 38.7948 375.8641 36.6708 378.0631 34.5488 379.1631 31.3658 379.1631 27.1208L379.1631 27.1208zM380.0891 85.0008L367.3551 50.0408 359.6001 50.0408 359.6001 85.0008 346.1711 85.0008 346.1711 3.0418 369.5551 3.0418C372.9501 3.0418 376.0761 3.4878 378.9321 4.3738 381.7861 5.2618 384.2371 6.6708 386.2821 8.5988 388.3261 10.5288 389.9291 12.9598 391.0861 15.8918 392.2441 18.8258 392.8231 22.3368 392.8231 26.4258 392.8231 29.5918 392.4181 32.3878 391.6071 34.8188 390.7971 37.2498 389.7731 39.3148 388.5391 41.0118 387.3041 42.7108 385.9351 44.0798 384.4301 45.1208 382.9251 46.1628 381.4381 46.8778 379.9741 47.2628L394.6751 85.0008 380.0891 85.0008zM440.251 27.1208C440.251 24.6518 439.904 22.6058 439.209 20.9858 438.515 19.3648 437.606 18.0918 436.489 17.1648 435.369 16.2388 434.116 15.5838 432.727 15.1978 431.337 14.8118 429.948 14.6188 428.559 14.6188L420.688 14.6188 420.688 39.8538 428.559 39.8538C431.954 39.8538 434.752 38.7948 436.952 36.6708 439.151 34.5488 440.251 31.3658 440.251 27.1208L440.251 27.1208zM441.177 85.0008L428.443 50.0408 420.688 50.0408 420.688 85.0008 407.259 85.0008 407.259 3.0418 430.643 3.0418C434.038 3.0418 437.164 3.4878 440.02 4.3738 442.874 5.2618 445.325 6.6708 447.37 8.5988 449.414 10.5288 451.017 12.9598 452.174 15.8918 453.332 18.8258 453.911 22.3368 453.911 26.4258 453.911 29.5918 453.506 32.3878 452.695 34.8188 451.885 37.2498 450.861 39.3148 449.627 41.0118 448.392 42.7108 447.023 44.0798 445.518 45.1208 444.013 46.1628 442.526 46.8778 441.062 47.2628L455.763 85.0008 441.177 85.0008zM9.4614 122.3367C8.7334 122.7787 7.8494 122.9997 6.8094 122.9997 5.7864 122.9997 4.8684 122.7567 4.0534 122.2717 3.2384 121.7867 2.5544 121.1107 1.9994 120.2437 1.4444 119.3777 1.0204 118.3587.7254 117.1887.4304 116.0187.2834 114.7407.2834 113.3537.2834 111.9677.4354 110.6847.7384 109.5057 1.0414 108.3277 1.4754 107.3087 2.0384 106.4507 2.6014 105.5927 3.2864 104.9207 4.0924 104.4357 4.8984 103.9507 5.8044 103.7077 6.8094 103.7077 7.7454 103.7077 8.6034 103.8897 9.3834 104.2537 10.1634 104.6177 10.8044 105.1727 11.3074 105.9177L9.8514 107.5037C9.4704 106.9497 9.0274 106.5377 8.5254 106.2687 8.0224 106.0007 7.4854 105.8657 6.9134 105.8657 6.2024 105.8657 5.5874 106.0657 5.0674 106.4637 4.5474 106.8627 4.1184 107.3997 3.7804 108.0757 3.4424 108.7517 3.1864 109.5447 3.0134 110.4547 2.8394 111.3647 2.7534 112.3317 2.7534 113.3537 2.7534 114.3767 2.8394 115.3387 3.0134 116.2397 3.1864 117.1417 3.4464 117.9347 3.7934 118.6187 4.1404 119.3037 4.5774 119.8457 5.1064 120.2437 5.6354 120.6427 6.2544 120.8417 6.9654 120.8417 7.6064 120.8417 8.1744 120.6687 8.6684 120.3217 9.1624 119.9757 9.5564 119.5507 9.8514 119.0477L11.2554 120.5817C10.7874 121.3097 10.1894 121.8947 9.4614 122.3367M20.7969 109.532L20.7969 117.852C20.7969 118.216 20.8139 118.589 20.8489 118.97 20.8839 119.351 20.9659 119.698 21.0959 120.01 21.2259 120.322 21.4119 120.574 21.6549 120.764 21.8979 120.955 22.2269 121.05 22.6429 121.05 23.0069 121.05 23.3449 120.95 23.6569 120.751 23.9689 120.552 24.2379 120.274 24.4629 119.919 24.6879 119.564 24.8619 119.139 24.9829 118.645 25.1039 118.151 25.1649 117.609 25.1649 117.02L25.1649 109.532 27.3749 109.532 27.3749 119.282C27.3749 119.802 27.3839 120.359 27.4009 120.952 27.4179 121.546 27.4439 122.081 27.4789 122.558L25.3729 122.558C25.3209 122.125 25.2819 121.691 25.2559 121.258 25.2299 120.825 25.2169 120.504 25.2169 120.296L25.1649 120.296C24.9219 121.059 24.5189 121.7 23.9559 122.22 23.3929 122.74 22.7039 123 21.8889 123 21.1779 123 20.6059 122.854 20.1729 122.564 19.7399 122.273 19.4059 121.887 19.1719 121.407 18.9379 120.927 18.7779 120.374 18.6909 119.75 18.6039 119.126 18.5609 118.493 18.5609 117.852L18.5609 109.532 20.7969 109.532zM39.647 109.8176C40.149 109.3156 40.73 109.0636 41.389 109.0636 41.527 109.0636 41.631 109.0726 41.701 109.0896L41.597 111.4036C41.527 111.3866 41.458 111.3736 41.389 111.3646 41.319 111.3566 41.242 111.3516 41.155 111.3516 40.739 111.3516 40.371 111.4866 40.05 111.7546 39.729 112.0236 39.46 112.3746 39.244 112.8076 39.027 113.2416 38.863 113.7306 38.75 114.2766 38.637 114.8226 38.581 115.3816 38.581 115.9536L38.581 122.5576 36.345 122.5576 36.345 112.8076C36.345 112.2876 36.336 111.7286 36.319 111.1306 36.302 110.5326 36.275 109.9916 36.241 109.5056L38.347 109.5056C38.399 109.9396 38.438 110.3896 38.464 110.8576 38.49 111.3256 38.503 111.7766 38.503 112.2096L38.555 112.2096C38.78 111.1176 39.144 110.3206 39.647 109.8176M53.8945 116.136L52.9325 116.136C52.5335 116.136 52.1485 116.171 51.7755 116.24 51.4025 116.309 51.0695 116.444 50.7745 116.643 50.4795 116.843 50.2415 117.115 50.0595 117.462 49.8775 117.809 49.7865 118.251 49.7865 118.788 49.7865 119.585 49.9595 120.17 50.3065 120.543 50.6535 120.916 51.0515 121.102 51.5025 121.102 51.9535 121.102 52.3305 120.968 52.6335 120.699 52.9365 120.43 53.1835 120.088 53.3745 119.672 53.5655 119.256 53.6995 118.801 53.7775 118.307 53.8555 117.813 53.8945 117.341 53.8945 116.89L53.8945 116.136zM54.2325 122.558C54.1635 122.159 54.1115 121.761 54.0765 121.362 54.0415 120.963 54.0245 120.643 54.0245 120.4L53.9725 120.4C53.7815 121.18 53.4395 121.791 52.9455 122.233 52.4515 122.675 51.7715 122.896 50.9045 122.896 50.5405 122.896 50.1675 122.826 49.7865 122.688 49.4055 122.55 49.0625 122.324 48.7595 122.012 48.4565 121.7 48.2045 121.302 48.0055 120.816 47.8065 120.331 47.7065 119.733 47.7065 119.022 47.7065 118.086 47.8755 117.319 48.2135 116.721 48.5515 116.123 48.9765 115.655 49.4875 115.317 49.9985 114.979 50.5665 114.749 51.1905 114.628 51.8145 114.507 52.4125 114.446 52.9845 114.446L53.8425 114.446 53.8425 113.874C53.8425 112.851 53.6475 112.11 53.2575 111.651 52.8675 111.192 52.3435 110.962 51.6845 110.962 51.1995 110.962 50.7485 111.083 50.3325 111.326 49.9165 111.569 49.5615 111.889 49.2665 112.288L48.1485 110.91C48.5825 110.321 49.1455 109.866 49.8385 109.545 50.5315 109.224 51.2165 109.064 51.8925 109.064 52.6375 109.064 53.2665 109.185 53.7775 109.428 54.2885 109.671 54.7005 110.026 55.0125 110.494 55.3245 110.962 55.5455 111.538 55.6755 112.223 55.8055 112.908 55.8705 113.683 55.8705 114.55L55.8705 119.828C55.8705 120.279 55.8875 120.768 55.9225 121.297 55.9575 121.826 56.0005 122.246 56.0525 122.558L54.2325 122.558zM68.3765 122.7918C68.0645 122.8608 67.7525 122.8958 67.4405 122.8958 66.4355 122.8958 65.7205 122.5748 65.2955 121.9338 64.8705 121.2928 64.6585 120.3998 64.6585 119.2558L64.6585 111.2998 62.9945 111.2998 62.9945 109.5058 64.6325 109.5058 64.6325 106.0218 66.7905 106.0218 66.7905 109.5058 69.1045 109.5058 69.1045 111.2998 66.7905 111.2998 66.7905 118.7938C66.7905 119.5548 66.9035 120.1038 67.1285 120.4408 67.3535 120.7778 67.6915 120.9458 68.1425 120.9458 68.2985 120.9458 68.4635 120.9268 68.6365 120.8888 68.8095 120.8518 68.9575 120.8098 69.0785 120.7638L69.1305 122.5318C68.9395 122.6358 68.6885 122.7228 68.3765 122.7918M82.5981 114.8098C82.5981 113.6738 82.4201 112.7568 82.0651 112.0598 81.7101 111.3628 81.1511 111.0138 80.3881 111.0138 79.9371 111.0138 79.5601 111.1478 79.2571 111.4138 78.9531 111.6818 78.7061 112.0088 78.5161 112.3958 78.3251 112.7828 78.1861 113.1958 78.1001 113.6348 78.0131 114.0738 77.9701 114.4658 77.9701 114.8098L82.5981 114.8098zM77.9181 116.6038C77.9181 117.2318 77.9741 117.8158 78.0871 118.3558 78.2001 118.8968 78.3641 119.3678 78.5811 119.7678 78.7981 120.1698 79.0711 120.4828 79.4001 120.7098 79.7291 120.9358 80.1111 121.0498 80.5441 121.0498 81.1331 121.0498 81.6011 120.8678 81.9481 120.5038 82.2951 120.1398 82.5721 119.7068 82.7801 119.2038L84.4441 120.1658C84.0971 120.9948 83.5991 121.6738 82.9491 122.2048 82.2991 122.7348 81.4711 122.9998 80.4661 122.9998 78.9751 122.9998 77.8051 122.3888 76.9561 121.1668 76.1071 119.9448 75.6821 118.2418 75.6821 116.0578 75.6821 115.0178 75.7951 114.0688 76.0201 113.2108 76.2451 112.3528 76.5661 111.6168 76.9821 111.0008 77.3981 110.3858 77.9011 109.9088 78.4901 109.5708 79.0791 109.2328 79.7291 109.0638 80.4401 109.0638 81.2371 109.0638 81.9131 109.2328 82.4681 109.5708 83.0231 109.9088 83.4771 110.3688 83.8331 110.9488 84.1881 111.5298 84.4441 112.2138 84.6001 113.0028 84.7561 113.7918 84.8341 114.6368 84.8341 115.5378L84.8341 116.6038 77.9181 116.6038zM99.4199 116.0447C99.4199 115.3367 99.3679 114.6747 99.2639 114.0617 99.1599 113.4477 98.9999 112.9157 98.7829 112.4657 98.5659 112.0167 98.3019 111.6627 97.9899 111.4027 97.6779 111.1437 97.3139 111.0137 96.8979 111.0137 96.4649 111.0137 96.0959 111.1437 95.7929 111.4027 95.4899 111.6627 95.2379 112.0167 95.0389 112.4657 94.8399 112.9157 94.6919 113.4477 94.5969 114.0617 94.5019 114.6747 94.4539 115.3367 94.4539 116.0447 94.4539 116.7537 94.5019 117.4107 94.5969 118.0157 94.6919 118.6217 94.8399 119.1487 95.0389 119.5977 95.2379 120.0467 95.4899 120.4017 95.7929 120.6607 96.0959 120.9197 96.4649 121.0497 96.8979 121.0497 97.3139 121.0497 97.6819 120.9197 98.0029 120.6607 98.3239 120.4017 98.5879 120.0467 98.7959 119.5977 99.0039 119.1487 99.1599 118.6217 99.2639 118.0157 99.3679 117.4107 99.4199 116.7537 99.4199 116.0447L99.4199 116.0447zM99.4199 122.5577L99.4199 120.5037 99.3679 120.5037C99.1599 121.2147 98.8259 121.8087 98.3669 122.2847 97.9079 122.7617 97.2269 122.9997 96.3259 122.9997 95.6669 122.9997 95.0779 122.8217 94.5579 122.4667 94.0379 122.1117 93.5999 121.6217 93.2449 120.9977 92.8899 120.3737 92.6209 119.6327 92.4389 118.7747 92.2569 117.9167 92.1659 116.9767 92.1659 115.9537 92.1659 114.9487 92.2529 114.0257 92.4259 113.1847 92.5989 112.3447 92.8639 111.6167 93.2189 111.0007 93.5739 110.3857 94.0119 109.9087 94.5319 109.5707 95.0519 109.2327 95.6499 109.0637 96.3259 109.0637 97.0889 109.0637 97.7299 109.2807 98.2499 109.7137 98.7699 110.1477 99.1249 110.7017 99.3159 111.3777L99.3679 111.3777 99.3679 102.9017 101.5779 102.9017 101.5779 122.5577 99.4199 122.5577z"/>
      <polygon fill="#292636" points="133.167 122.558 133.167 107.322 133.089 107.322 128.982 122.558 126.876 122.558 122.82 107.322 122.742 107.322 122.742 122.558 120.584 122.558 120.584 104.15 124.022 104.15 127.954 118.762 128.059 118.762 131.913 104.15 135.507 104.15 135.507 122.558"/>
      <path fill="#292636" d="M150.9517 116.0447C150.9517 115.3367 150.9037 114.6747 150.8087 114.0617 150.7127 113.4477 150.5617 112.9157 150.3537 112.4657 150.1457 112.0167 149.8857 111.6627 149.5737 111.4027 149.2617 111.1437 148.8977 111.0137 148.4817 111.0137 148.0657 111.0137 147.7017 111.1437 147.3897 111.4027 147.0777 111.6627 146.8217 112.0167 146.6227 112.4657 146.4237 112.9157 146.2757 113.4477 146.1807 114.0617 146.0847 114.6747 146.0377 115.3367 146.0377 116.0447 146.0377 116.7537 146.0847 117.4107 146.1807 118.0157 146.2757 118.6217 146.4237 119.1487 146.6227 119.5977 146.8217 120.0467 147.0777 120.4017 147.3897 120.6607 147.7017 120.9197 148.0657 121.0497 148.4817 121.0497 148.9147 121.0497 149.2877 120.9197 149.5997 120.6607 149.9117 120.4017 150.1667 120.0467 150.3667 119.5977 150.5657 119.1487 150.7127 118.6217 150.8087 118.0157 150.9037 117.4107 150.9517 116.7537 150.9517 116.0447M153.2397 116.0577C153.2397 117.0977 153.1317 118.0427 152.9147 118.8917 152.6977 119.7417 152.3857 120.4697 151.9787 121.0757 151.5717 121.6827 151.0727 122.1547 150.4837 122.4927 149.8937 122.8307 149.2267 122.9997 148.4817 122.9997 147.7537 122.9997 147.0947 122.8307 146.5057 122.4927 145.9157 122.1547 145.4177 121.6827 145.0107 121.0757 144.6027 120.4697 144.2907 119.7417 144.0747 118.8917 143.8577 118.0427 143.7497 117.0977 143.7497 116.0577 143.7497 115.0177 143.8577 114.0647 144.0747 113.1977 144.2907 112.3317 144.5987 111.5947 144.9977 110.9877 145.3957 110.3807 145.8897 109.9087 146.4797 109.5707 147.0687 109.2327 147.7367 109.0637 148.4817 109.0637 149.2267 109.0637 149.8937 109.2327 150.4837 109.5707 151.0727 109.9087 151.5717 110.3807 151.9787 110.9877 152.3857 111.5947 152.6977 112.3317 152.9147 113.1977 153.1317 114.0647 153.2397 115.0177 153.2397 116.0577M167.9028 116.0447C167.9028 115.3367 167.8508 114.6747 167.7468 114.0617 167.6428 113.4477 167.4828 112.9157 167.2658 112.4657 167.0488 112.0167 166.7848 111.6627 166.4728 111.4027 166.1608 111.1437 165.7968 111.0137 165.3808 111.0137 164.9478 111.0137 164.5788 111.1437 164.2758 111.4027 163.9728 111.6627 163.7208 112.0167 163.5218 112.4657 163.3228 112.9157 163.1748 113.4477 163.0798 114.0617 162.9848 114.6747 162.9368 115.3367 162.9368 116.0447 162.9368 116.7537 162.9848 117.4107 163.0798 118.0157 163.1748 118.6217 163.3228 119.1487 163.5218 119.5977 163.7208 120.0467 163.9728 120.4017 164.2758 120.6607 164.5788 120.9197 164.9478 121.0497 165.3808 121.0497 165.7968 121.0497 166.1648 120.9197 166.4858 120.6607 166.8068 120.4017 167.0708 120.0467 167.2788 119.5977 167.4868 119.1487 167.6428 118.6217 167.7468 118.0157 167.8508 117.4107 167.9028 116.7537 167.9028 116.0447L167.9028 116.0447zM167.9028 122.5577L167.9028 120.5037 167.8508 120.5037C167.6428 121.2147 167.3088 121.8087 166.8498 122.2847 166.3908 122.7617 165.7098 122.9997 164.8088 122.9997 164.1498 122.9997 163.5608 122.8217 163.0408 122.4667 162.5208 122.1117 162.0828 121.6217 161.7278 120.9977 161.3728 120.3737 161.1038 119.6327 160.9218 118.7747 160.7398 117.9167 160.6488 116.9767 160.6488 115.9537 160.6488 114.9487 160.7358 114.0257 160.9088 113.1847 161.0818 112.3447 161.3468 111.6167 161.7018 111.0007 162.0568 110.3857 162.4948 109.9087 163.0148 109.5707 163.5348 109.2327 164.1328 109.0637 164.8088 109.0637 165.5718 109.0637 166.2128 109.2807 166.7328 109.7137 167.2528 110.1477 167.6078 110.7017 167.7988 111.3777L167.8508 111.3777 167.8508 102.9017 170.0608 102.9017 170.0608 122.5577 167.9028 122.5577zM185.1152 114.8098C185.1152 113.6738 184.9372 112.7568 184.5822 112.0598 184.2272 111.3628 183.6682 111.0138 182.9052 111.0138 182.4542 111.0138 182.0772 111.1478 181.7742 111.4138 181.4702 111.6818 181.2232 112.0088 181.0332 112.3958 180.8422 112.7828 180.7032 113.1958 180.6172 113.6348 180.5302 114.0738 180.4872 114.4658 180.4872 114.8098L185.1152 114.8098zM180.4352 116.6038C180.4352 117.2318 180.4912 117.8158 180.6042 118.3558 180.7172 118.8968 180.8812 119.3678 181.0982 119.7678 181.3152 120.1698 181.5882 120.4828 181.9172 120.7098 182.2462 120.9358 182.6282 121.0498 183.0612 121.0498 183.6502 121.0498 184.1182 120.8678 184.4652 120.5038 184.8122 120.1398 185.0892 119.7068 185.2972 119.2038L186.9612 120.1658C186.6142 120.9948 186.1162 121.6738 185.4662 122.2048 184.8162 122.7348 183.9882 122.9998 182.9832 122.9998 181.4922 122.9998 180.3222 122.3888 179.4732 121.1668 178.6242 119.9448 178.1992 118.2418 178.1992 116.0578 178.1992 115.0178 178.3122 114.0688 178.5372 113.2108 178.7622 112.3528 179.0832 111.6168 179.4992 111.0008 179.9152 110.3858 180.4182 109.9088 181.0072 109.5708 181.5962 109.2328 182.2462 109.0638 182.9572 109.0638 183.7542 109.0638 184.4302 109.2328 184.9852 109.5708 185.5402 109.9088 185.9942 110.3688 186.3502 110.9488 186.7052 111.5298 186.9612 112.2138 187.1172 113.0028 187.2732 113.7918 187.3512 114.6368 187.3512 115.5378L187.3512 116.6038 180.4352 116.6038zM198.7646 109.8176C199.2666 109.3156 199.8476 109.0636 200.5066 109.0636 200.6446 109.0636 200.7486 109.0726 200.8186 109.0896L200.7146 111.4036C200.6446 111.3866 200.5756 111.3736 200.5066 111.3646 200.4366 111.3566 200.3596 111.3516 200.2726 111.3516 199.8566 111.3516 199.4886 111.4866 199.1676 111.7546 198.8466 112.0236 198.5776 112.3746 198.3616 112.8076 198.1446 113.2416 197.9806 113.7306 197.8676 114.2766 197.7546 114.8226 197.6986 115.3816 197.6986 115.9536L197.6986 122.5576 195.4626 122.5576 195.4626 112.8076C195.4626 112.2876 195.4536 111.7286 195.4366 111.1306 195.4196 110.5326 195.3926 109.9916 195.3586 109.5056L197.4646 109.5056C197.5166 109.9396 197.5556 110.3896 197.5816 110.8576 197.6076 111.3256 197.6206 111.7766 197.6206 112.2096L197.6726 112.2096C197.8976 111.1176 198.2616 110.3206 198.7646 109.8176M214.5205 122.5579L214.5205 114.2189C214.5205 113.8539 214.5035 113.4809 214.4685 113.0989 214.4335 112.7169 214.3515 112.3689 214.2215 112.0569 214.0915 111.7439 213.9055 111.4919 213.6625 111.3009 213.4195 111.1099 213.0905 111.0139 212.6745 111.0139 212.3105 111.0139 211.9725 111.1139 211.6605 111.3139 211.3485 111.5139 211.0795 111.7909 210.8545 112.1469 210.6295 112.5039 210.4555 112.9299 210.3345 113.4239 210.2135 113.9189 210.1525 114.4619 210.1525 115.0529L210.1525 122.5579 207.9425 122.5579 207.9425 112.8079C207.9425 112.2879 207.9335 111.7289 207.9165 111.1309 207.8995 110.5329 207.8735 109.9919 207.8385 109.5059L209.9445 109.5059C209.9965 109.9389 210.0355 110.3729 210.0615 110.8059 210.0875 111.2399 210.1005 111.5599 210.1005 111.7679L210.1525 111.7679C210.3955 111.0049 210.7985 110.3639 211.3615 109.8439 211.9245 109.3239 212.6135 109.0639 213.4285 109.0639 214.1215 109.0639 214.6895 109.2109 215.1315 109.5059 215.5735 109.8009 215.9115 110.1909 216.1455 110.6759 216.3795 111.1619 216.5395 111.7159 216.6265 112.3399 216.7135 112.9639 216.7565 113.5969 216.7565 114.2379L216.7565 122.5579 214.5205 122.5579zM243.3018 117.3455C243.3018 116.7195 243.2018 116.1835 243.0028 115.7405 242.8028 115.2965 242.5478 114.9395 242.2358 114.6695 241.9238 114.4005 241.5728 114.2045 241.1828 114.0825 240.7928 113.9605 240.4068 113.8995 240.0258 113.8995L237.8678 113.8995 237.8678 120.6075 240.1298 120.6075C240.5628 120.6075 240.9748 120.5425 241.3648 120.4115 241.7548 120.2815 242.0928 120.0855 242.3788 119.8245 242.6648 119.5645 242.8898 119.2295 243.0548 118.8205 243.2188 118.4115 243.3018 117.9195 243.3018 117.3455L243.3018 117.3455zM242.8078 109.0515C242.8078 108.4935 242.7208 108.0285 242.5478 107.6535 242.3748 107.2795 242.1488 106.9745 241.8718 106.7395 241.5938 106.5055 241.2778 106.3395 240.9228 106.2435 240.5678 106.1475 240.1988 106.0995 239.8178 106.0995L237.8678 106.0995 237.8678 112.0535 239.8698 112.0535C240.2168 112.0535 240.5678 111.9975 240.9228 111.8845 241.2778 111.7715 241.5938 111.5965 241.8718 111.3625 242.1488 111.1275 242.3748 110.8185 242.5478 110.4345 242.7208 110.0525 242.8078 109.5905 242.8078 109.0515L242.8078 109.0515zM242.4698 112.8865C242.7988 112.9555 243.1498 113.0945 243.5228 113.3025 243.8958 113.5105 244.2378 113.8005 244.5508 114.1735 244.8628 114.5455 245.1228 115.0045 245.3298 115.5515 245.5378 116.0965 245.6418 116.7425 245.6418 117.4885 245.6418 118.4415 245.4858 119.2395 245.1728 119.8795 244.8598 120.5215 244.4598 121.0415 243.9738 121.4395 243.4868 121.8385 242.9478 122.1245 242.3578 122.2985 241.7658 122.4715 241.1928 122.5575 240.6368 122.5575L235.6578 122.5575 235.6578 104.1495 240.0778 104.1495C240.5978 104.1495 241.1478 104.2155 241.7288 104.3455 242.3098 104.4745 242.8428 104.7135 243.3278 105.0595 243.8128 105.4075 244.2118 105.8745 244.5238 106.4635 244.8358 107.0535 244.9918 107.7985 244.9918 108.6995 244.9918 109.3065 244.9228 109.8355 244.7838 110.2855 244.6448 110.7365 244.4588 111.1315 244.2248 111.4695 243.9908 111.8065 243.7218 112.0885 243.4188 112.3135 243.1148 112.5395 242.7988 112.7125 242.4698 112.8335L242.4698 112.8865zM255.73 109.532L255.73 117.852C255.73 118.216 255.747 118.589 255.782 118.97 255.817 119.351 255.899 119.698 256.029 120.01 256.159 120.322 256.345 120.574 256.588 120.764 256.831 120.955 257.16 121.05 257.576 121.05 257.94 121.05 258.278 120.95 258.59 120.751 258.902 120.552 259.171 120.274 259.396 119.919 259.621 119.564 259.795 119.139 259.916 118.645 260.037 118.151 260.098 117.609 260.098 117.02L260.098 109.532 262.308 109.532 262.308 119.282C262.308 119.802 262.317 120.359 262.334 120.952 262.351 121.546 262.377 122.081 262.412 122.558L260.306 122.558C260.254 122.125 260.215 121.691 260.189 121.258 260.163 120.825 260.15 120.504 260.15 120.296L260.098 120.296C259.855 121.059 259.452 121.7 258.889 122.22 258.326 122.74 257.637 123 256.822 123 256.111 123 255.539 122.854 255.106 122.564 254.673 122.273 254.339 121.887 254.105 121.407 253.871 120.927 253.711 120.374 253.624 119.75 253.537 119.126 253.494 118.493 253.494 117.852L253.494 109.532 255.73 109.532zM276.3994 111.9758C276.1744 111.6468 275.8834 111.3738 275.5284 111.1568 275.1734 110.9398 274.7534 110.8318 274.2674 110.8318 273.7644 110.8318 273.3484 111.0098 273.0194 111.3648 272.6904 111.7208 272.5254 112.2018 272.5254 112.8078 272.5254 113.4148 272.6944 113.8568 273.0324 114.1338 273.3704 114.4118 273.8864 114.6798 274.5794 114.9398 274.9434 115.0788 275.3034 115.2478 275.6584 115.4468 276.0134 115.6458 276.3344 115.9018 276.6204 116.2138 276.9064 116.5258 277.1364 116.8938 277.3094 117.3188 277.4824 117.7438 277.5694 118.2508 277.5694 118.8398 277.5694 119.5158 277.4694 120.1138 277.2704 120.6338 277.0714 121.1538 276.7934 121.5868 276.4384 121.9338 276.0834 122.2808 275.6624 122.5448 275.1774 122.7268 274.6924 122.9088 274.1634 122.9998 273.5914 122.9998 272.8114 122.9998 272.1004 122.8398 271.4594 122.5188 270.8184 122.1988 270.2804 121.7688 269.8474 121.2318L271.1474 119.8018C271.4424 120.1658 271.7884 120.4818 272.1874 120.7508 272.5864 121.0198 273.0804 121.1538 273.6694 121.1538 274.2244 121.1538 274.6614 120.9548 274.9824 120.5558 275.3034 120.1578 275.4634 119.6378 275.4634 118.9958 275.4634 118.6318 275.4024 118.3198 275.2814 118.0598 275.1604 117.7998 274.9954 117.5788 274.7874 117.3968 274.5794 117.2148 274.3324 117.0588 274.0464 116.9288 273.7604 116.7988 273.4524 116.6728 273.1234 116.5518 272.7944 116.4308 272.4694 116.2838 272.1484 116.1098 271.8274 115.9368 271.5374 115.7068 271.2774 115.4208 271.0174 115.1348 270.8094 114.7888 270.6534 114.3808 270.4974 113.9738 270.4194 113.4758 270.4194 112.8858 270.4194 112.3138 270.5194 111.7938 270.7184 111.3258 270.9174 110.8578 271.1914 110.4548 271.5374 110.1168 271.8844 109.7788 272.2914 109.5188 272.7594 109.3368 273.2274 109.1548 273.7304 109.0638 274.2674 109.0638 275.0474 109.0638 275.7194 109.1988 276.2824 109.4668 276.8454 109.7358 277.3094 110.0868 277.6734 110.5198L276.3994 111.9758z"/>
      <mask id="group-9-copy-3-f" fill="#fff">
        <use xlink:href="#group-9-copy-3-e"/>
      </mask>
      <path fill="#292636" d="M285.474 122.558L287.684 122.558 287.684 109.506 285.474 109.506 285.474 122.558zM287.97 105.632C287.97 106.065 287.835 106.421 287.567 106.698 287.298 106.975 286.973 107.114 286.592 107.114 286.193 107.114 285.864 106.975 285.604 106.698 285.344 106.421 285.214 106.065 285.214 105.632 285.214 105.216 285.344 104.865 285.604 104.579 285.864 104.293 286.193 104.15 286.592 104.15 286.99 104.15 287.32 104.293 287.58 104.579 287.84 104.865 287.97 105.216 287.97 105.632L287.97 105.632zM303.2051 122.5579L303.2051 114.2189C303.2051 113.8539 303.1881 113.4809 303.1531 113.0989 303.1181 112.7169 303.0361 112.3689 302.9061 112.0569 302.7761 111.7439 302.5901 111.4919 302.3471 111.3009 302.1041 111.1099 301.7751 111.0139 301.3591 111.0139 300.9951 111.0139 300.6571 111.1139 300.3451 111.3139 300.0331 111.5139 299.7641 111.7909 299.5391 112.1469 299.3141 112.5039 299.1401 112.9299 299.0191 113.4239 298.8981 113.9189 298.8371 114.4619 298.8371 115.0529L298.8371 122.5579 296.6271 122.5579 296.6271 112.8079C296.6271 112.2879 296.6181 111.7289 296.6011 111.1309 296.5841 110.5329 296.5581 109.9919 296.5231 109.5059L298.6291 109.5059C298.6811 109.9389 298.7201 110.3729 298.7461 110.8059 298.7721 111.2399 298.7851 111.5599 298.7851 111.7679L298.8371 111.7679C299.0801 111.0049 299.4831 110.3639 300.0461 109.8439 300.6091 109.3239 301.2981 109.0639 302.1131 109.0639 302.8061 109.0639 303.3741 109.2109 303.8161 109.5059 304.2581 109.8009 304.5961 110.1909 304.8301 110.6759 305.0641 111.1619 305.2241 111.7159 305.3111 112.3399 305.3981 112.9639 305.4411 113.5969 305.4411 114.2379L305.4411 122.5579 303.2051 122.5579zM320.3911 114.8098C320.3911 113.6738 320.2131 112.7568 319.8581 112.0598 319.5031 111.3628 318.9441 111.0138 318.1811 111.0138 317.7301 111.0138 317.3531 111.1478 317.0501 111.4138 316.7461 111.6818 316.4991 112.0088 316.3091 112.3958 316.1181 112.7828 315.9791 113.1958 315.8931 113.6348 315.8061 114.0738 315.7631 114.4658 315.7631 114.8098L320.3911 114.8098zM315.7111 116.6038C315.7111 117.2318 315.7671 117.8158 315.8801 118.3558 315.9931 118.8968 316.1571 119.3678 316.3741 119.7678 316.5911 120.1698 316.8641 120.4828 317.1931 120.7098 317.5221 120.9358 317.9041 121.0498 318.3371 121.0498 318.9261 121.0498 319.3941 120.8678 319.7411 120.5038 320.0881 120.1398 320.3651 119.7068 320.5731 119.2038L322.2371 120.1658C321.8901 120.9948 321.3921 121.6738 320.7421 122.2048 320.0921 122.7348 319.2641 122.9998 318.2591 122.9998 316.7681 122.9998 315.5981 122.3888 314.7491 121.1668 313.9001 119.9448 313.4751 118.2418 313.4751 116.0578 313.4751 115.0178 313.5881 114.0688 313.8131 113.2108 314.0381 112.3528 314.3591 111.6168 314.7751 111.0008 315.1911 110.3858 315.6941 109.9088 316.2831 109.5708 316.8721 109.2328 317.5221 109.0638 318.2331 109.0638 319.0301 109.0638 319.7061 109.2328 320.2611 109.5708 320.8161 109.9088 321.2701 110.3688 321.6261 110.9488 321.9811 111.5298 322.2371 112.2138 322.3931 113.0028 322.5491 113.7918 322.6271 114.6368 322.6271 115.5378L322.6271 116.6038 315.7111 116.6038zM335.8608 111.9758C335.6358 111.6468 335.3448 111.3738 334.9898 111.1568 334.6348 110.9398 334.2148 110.8318 333.7288 110.8318 333.2258 110.8318 332.8098 111.0098 332.4808 111.3648 332.1518 111.7208 331.9868 112.2018 331.9868 112.8078 331.9868 113.4148 332.1558 113.8568 332.4938 114.1338 332.8318 114.4118 333.3478 114.6798 334.0408 114.9398 334.4048 115.0788 334.7648 115.2478 335.1198 115.4468 335.4748 115.6458 335.7958 115.9018 336.0818 116.2138 336.3678 116.5258 336.5978 116.8938 336.7708 117.3188 336.9438 117.7438 337.0308 118.2508 337.0308 118.8398 337.0308 119.5158 336.9308 120.1138 336.7318 120.6338 336.5328 121.1538 336.2548 121.5868 335.8998 121.9338 335.5448 122.2808 335.1238 122.5448 334.6388 122.7268 334.1538 122.9088 333.6248 122.9998 333.0528 122.9998 332.2728 122.9998 331.5618 122.8398 330.9208 122.5188 330.2798 122.1988 329.7418 121.7688 329.3088 121.2318L330.6088 119.8018C330.9038 120.1658 331.2498 120.4818 331.6488 120.7508 332.0478 121.0198 332.5418 121.1538 333.1308 121.1538 333.6858 121.1538 334.1228 120.9548 334.4438 120.5558 334.7648 120.1578 334.9248 119.6378 334.9248 118.9958 334.9248 118.6318 334.8638 118.3198 334.7428 118.0598 334.6218 117.7998 334.4568 117.5788 334.2488 117.3968 334.0408 117.2148 333.7938 117.0588 333.5078 116.9288 333.2218 116.7988 332.9138 116.6728 332.5848 116.5518 332.2558 116.4308 331.9308 116.2838 331.6098 116.1098 331.2888 115.9368 330.9988 115.7068 330.7388 115.4208 330.4788 115.1348 330.2708 114.7888 330.1148 114.3808 329.9588 113.9738 329.8808 113.4758 329.8808 112.8858 329.8808 112.3138 329.9808 111.7938 330.1798 111.3258 330.3788 110.8578 330.6528 110.4548 330.9988 110.1168 331.3458 109.7788 331.7528 109.5188 332.2208 109.3368 332.6888 109.1548 333.1918 109.0638 333.7288 109.0638 334.5088 109.0638 335.1808 109.1988 335.7438 109.4668 336.3068 109.7358 336.7708 110.0868 337.1348 110.5198L335.8608 111.9758zM349.9526 111.9758C349.7276 111.6468 349.4366 111.3738 349.0816 111.1568 348.7266 110.9398 348.3066 110.8318 347.8206 110.8318 347.3176 110.8318 346.9016 111.0098 346.5726 111.3648 346.2436 111.7208 346.0786 112.2018 346.0786 112.8078 346.0786 113.4148 346.2476 113.8568 346.5856 114.1338 346.9236 114.4118 347.4396 114.6798 348.1326 114.9398 348.4966 115.0788 348.8566 115.2478 349.2116 115.4468 349.5666 115.6458 349.8876 115.9018 350.1736 116.2138 350.4596 116.5258 350.6896 116.8938 350.8626 117.3188 351.0356 117.7438 351.1226 118.2508 351.1226 118.8398 351.1226 119.5158 351.0226 120.1138 350.8236 120.6338 350.6246 121.1538 350.3466 121.5868 349.9916 121.9338 349.6366 122.2808 349.2156 122.5448 348.7306 122.7268 348.2456 122.9088 347.7166 122.9998 347.1446 122.9998 346.3646 122.9998 345.6536 122.8398 345.0126 122.5188 344.3716 122.1988 343.8336 121.7688 343.4006 121.2318L344.7006 119.8018C344.9956 120.1658 345.3416 120.4818 345.7406 120.7508 346.1396 121.0198 346.6336 121.1538 347.2226 121.1538 347.7776 121.1538 348.2146 120.9548 348.5356 120.5558 348.8566 120.1578 349.0166 119.6378 349.0166 118.9958 349.0166 118.6318 348.9556 118.3198 348.8346 118.0598 348.7136 117.7998 348.5486 117.5788 348.3406 117.3968 348.1326 117.2148 347.8856 117.0588 347.5996 116.9288 347.3136 116.7988 347.0056 116.6728 346.6766 116.5518 346.3476 116.4308 346.0226 116.2838 345.7016 116.1098 345.3806 115.9368 345.0906 115.7068 344.8306 115.4208 344.5706 115.1348 344.3626 114.7888 344.2066 114.3808 344.0506 113.9738 343.9726 113.4758 343.9726 112.8858 343.9726 112.3138 344.0726 111.7938 344.2716 111.3258 344.4706 110.8578 344.7446 110.4548 345.0906 110.1168 345.4376 109.7788 345.8446 109.5188 346.3126 109.3368 346.7806 109.1548 347.2836 109.0638 347.8206 109.0638 348.6006 109.0638 349.2726 109.1988 349.8356 109.4668 350.3986 109.7358 350.8626 110.0868 351.2266 110.5198L349.9526 111.9758zM377.4868 117.6697C377.4868 118.5017 377.3568 119.2517 377.0968 119.9187 376.8368 120.5867 376.4858 121.1457 376.0438 121.5957 375.6018 122.0467 375.0768 122.3937 374.4708 122.6357 373.8638 122.8777 373.2138 122.9997 372.5208 122.9997 371.5848 122.9997 370.6958 122.8047 369.8558 122.4147 369.0148 122.0247 368.3428 121.5097 367.8408 120.8677L369.2188 119.1777C369.6168 119.6977 370.1158 120.1057 370.7138 120.3997 371.3118 120.6947 371.9138 120.8417 372.5208 120.8417 373.3008 120.8417 373.9418 120.5817 374.4448 120.0617 374.9468 119.5417 375.1988 118.7877 375.1988 117.7997 375.1988 117.3317 375.1208 116.9197 374.9648 116.5647 374.8088 116.2097 374.5918 115.8887 374.3148 115.6027 374.0368 115.3167 373.7208 115.0567 373.3658 114.8227 373.0098 114.5887 372.6248 114.3677 372.2088 114.1597 371.7058 113.9177 371.2338 113.6447 370.7918 113.3407 370.3498 113.0377 369.9548 112.6867 369.6088 112.2877 369.2618 111.8897 368.9888 111.4167 368.7898 110.8707 368.5908 110.3247 368.4908 109.6797 368.4908 108.9337 368.4908 108.0497 368.6298 107.2787 368.9068 106.6197 369.1838 105.9617 369.5518 105.4157 370.0118 104.9817 370.4708 104.5487 370.9948 104.2277 371.5848 104.0197 372.1738 103.8117 372.7718 103.7077 373.3788 103.7077 374.2628 103.7077 375.0558 103.8557 375.7578 104.1497 376.4598 104.4447 377.0448 104.8867 377.5128 105.4757L376.1088 107.1397C375.4498 106.2737 374.5658 105.8397 373.4568 105.8397 373.1278 105.8397 372.8018 105.8967 372.4818 106.0087 372.1608 106.1217 371.8708 106.3037 371.6108 106.5547 371.3508 106.8067 371.1428 107.1227 370.9868 107.5037 370.8308 107.8857 370.7528 108.3447 370.7528 108.8817 370.7528 109.3497 370.8258 109.7527 370.9738 110.0907 371.1208 110.4287 371.3198 110.7327 371.5718 111.0007 371.8228 111.2697 372.1128 111.5127 372.4428 111.7287 372.7718 111.9457 373.1278 112.1487 373.5088 112.3397 373.9938 112.5827 374.4708 112.8557 374.9388 113.1587 375.4068 113.4617 375.8308 113.8217 376.2128 114.2377 376.5938 114.6537 376.9018 115.1437 377.1358 115.7067 377.3698 116.2707 377.4868 116.9247 377.4868 117.6697M389.29 122.7918C388.978 122.8608 388.666 122.8958 388.354 122.8958 387.349 122.8958 386.634 122.5748 386.209 121.9338 385.784 121.2928 385.572 120.3998 385.572 119.2558L385.572 111.2998 383.908 111.2998 383.908 109.5058 385.546 109.5058 385.546 106.0218 387.704 106.0218 387.704 109.5058 390.018 109.5058 390.018 111.2998 387.704 111.2998 387.704 118.7938C387.704 119.5548 387.817 120.1038 388.042 120.4408 388.267 120.7778 388.605 120.9458 389.056 120.9458 389.212 120.9458 389.377 120.9268 389.55 120.8888 389.723 120.8518 389.871 120.8098 389.992 120.7638L390.044 122.5318C389.853 122.6358 389.602 122.7228 389.29 122.7918M403.7979 116.0447C403.7979 115.3367 403.7499 114.6747 403.6549 114.0617 403.5589 113.4477 403.4079 112.9157 403.1999 112.4657 402.9919 112.0167 402.7319 111.6627 402.4199 111.4027 402.1079 111.1437 401.7439 111.0137 401.3279 111.0137 400.9119 111.0137 400.5479 111.1437 400.2359 111.4027 399.9239 111.6627 399.6679 112.0167 399.4689 112.4657 399.2699 112.9157 399.1219 113.4477 399.0269 114.0617 398.9309 114.6747 398.8839 115.3367 398.8839 116.0447 398.8839 116.7537 398.9309 117.4107 399.0269 118.0157 399.1219 118.6217 399.2699 119.1487 399.4689 119.5977 399.6679 120.0467 399.9239 120.4017 400.2359 120.6607 400.5479 120.9197 400.9119 121.0497 401.3279 121.0497 401.7609 121.0497 402.1339 120.9197 402.4459 120.6607 402.7579 120.4017 403.0129 120.0467 403.2129 119.5977 403.4119 119.1487 403.5589 118.6217 403.6549 118.0157 403.7499 117.4107 403.7979 116.7537 403.7979 116.0447M406.0859 116.0577C406.0859 117.0977 405.9779 118.0427 405.7609 118.8917 405.5439 119.7417 405.2319 120.4697 404.8249 121.0757 404.4179 121.6827 403.9189 122.1547 403.3299 122.4927 402.7399 122.8307 402.0729 122.9997 401.3279 122.9997 400.5999 122.9997 399.9409 122.8307 399.3519 122.4927 398.7619 122.1547 398.2639 121.6827 397.8569 121.0757 397.4489 120.4697 397.1369 119.7417 396.9209 118.8917 396.7039 118.0427 396.5959 117.0977 396.5959 116.0577 396.5959 115.0177 396.7039 114.0647 396.9209 113.1977 397.1369 112.3317 397.4449 111.5947 397.8439 110.9877 398.2419 110.3807 398.7359 109.9087 399.3259 109.5707 399.9149 109.2327 400.5829 109.0637 401.3279 109.0637 402.0729 109.0637 402.7399 109.2327 403.3299 109.5707 403.9189 109.9087 404.4179 110.3807 404.8249 110.9877 405.2319 111.5947 405.5439 112.3317 405.7609 113.1977 405.9779 114.0647 406.0859 115.0177 406.0859 116.0577M416.5776 109.8176C417.0796 109.3156 417.6606 109.0636 418.3196 109.0636 418.4576 109.0636 418.5616 109.0726 418.6316 109.0896L418.5276 111.4036C418.4576 111.3866 418.3886 111.3736 418.3196 111.3646 418.2496 111.3566 418.1726 111.3516 418.0856 111.3516 417.6696 111.3516 417.3016 111.4866 416.9806 111.7546 416.6596 112.0236 416.3906 112.3746 416.1746 112.8076 415.9576 113.2416 415.7936 113.7306 415.6806 114.2766 415.5676 114.8226 415.5116 115.3816 415.5116 115.9536L415.5116 122.5576 413.2756 122.5576 413.2756 112.8076C413.2756 112.2876 413.2666 111.7286 413.2496 111.1306 413.2326 110.5326 413.2056 109.9916 413.1716 109.5056L415.2776 109.5056C415.3296 109.9396 415.3686 110.3896 415.3946 110.8576 415.4206 111.3256 415.4336 111.7766 415.4336 112.2096L415.4856 112.2096C415.7106 111.1176 416.0746 110.3206 416.5776 109.8176M424.703 122.558L426.913 122.558 426.913 109.506 424.703 109.506 424.703 122.558zM427.199 105.632C427.199 106.065 427.065 106.421 426.796 106.698 426.527 106.975 426.202 107.114 425.821 107.114 425.422 107.114 425.093 106.975 424.833 106.698 424.573 106.421 424.443 106.065 424.443 105.632 424.443 105.216 424.573 104.865 424.833 104.579 425.093 104.293 425.422 104.15 425.821 104.15 426.22 104.15 426.549 104.293 426.809 104.579 427.069 104.865 427.199 105.216 427.199 105.632L427.199 105.632zM440.9932 114.8098C440.9932 113.6738 440.8152 112.7568 440.4602 112.0598 440.1052 111.3628 439.5462 111.0138 438.7832 111.0138 438.3322 111.0138 437.9552 111.1478 437.6522 111.4138 437.3482 111.6818 437.1012 112.0088 436.9112 112.3958 436.7202 112.7828 436.5812 113.1958 436.4952 113.6348 436.4082 114.0738 436.3652 114.4658 436.3652 114.8098L440.9932 114.8098zM436.3132 116.6038C436.3132 117.2318 436.3692 117.8158 436.4822 118.3558 436.5952 118.8968 436.7592 119.3678 436.9762 119.7678 437.1932 120.1698 437.4662 120.4828 437.7952 120.7098 438.1242 120.9358 438.5062 121.0498 438.9392 121.0498 439.5282 121.0498 439.9962 120.8678 440.3432 120.5038 440.6902 120.1398 440.9672 119.7068 441.1752 119.2038L442.8392 120.1658C442.4922 120.9948 441.9942 121.6738 441.3442 122.2048 440.6942 122.7348 439.8662 122.9998 438.8612 122.9998 437.3702 122.9998 436.2002 122.3888 435.3512 121.1668 434.5022 119.9448 434.0772 118.2418 434.0772 116.0578 434.0772 115.0178 434.1902 114.0688 434.4152 113.2108 434.6402 112.3528 434.9612 111.6168 435.3772 111.0008 435.7932 110.3858 436.2962 109.9088 436.8852 109.5708 437.4742 109.2328 438.1242 109.0638 438.8352 109.0638 439.6322 109.0638 440.3082 109.2328 440.8632 109.5708 441.4182 109.9088 441.8722 110.3688 442.2282 110.9488 442.5832 111.5298 442.8392 112.2138 442.9952 113.0028 443.1512 113.7918 443.2292 114.6368 443.2292 115.5378L443.2292 116.6038 436.3132 116.6038zM455.4629 111.9758C455.2379 111.6468 454.9469 111.3738 454.5919 111.1568 454.2369 110.9398 453.8169 110.8318 453.3309 110.8318 452.8279 110.8318 452.4119 111.0098 452.0829 111.3648 451.7539 111.7208 451.5889 112.2018 451.5889 112.8078 451.5889 113.4148 451.7579 113.8568 452.0959 114.1338 452.4339 114.4118 452.9499 114.6798 453.6429 114.9398 454.0069 115.0788 454.3669 115.2478 454.7219 115.4468 455.0769 115.6458 455.3979 115.9018 455.6839 116.2138 455.9699 116.5258 456.1999 116.8938 456.3729 117.3188 456.5459 117.7438 456.6329 118.2508 456.6329 118.8398 456.6329 119.5158 456.5329 120.1138 456.3339 120.6338 456.1349 121.1538 455.8569 121.5868 455.5019 121.9338 455.1469 122.2808 454.7259 122.5448 454.2409 122.7268 453.7559 122.9088 453.2269 122.9998 452.6549 122.9998 451.8749 122.9998 451.1639 122.8398 450.5229 122.5188 449.8819 122.1988 449.3439 121.7688 448.9109 121.2318L450.2109 119.8018C450.5059 120.1658 450.8519 120.4818 451.2509 120.7508 451.6499 121.0198 452.1439 121.1538 452.7329 121.1538 453.2879 121.1538 453.7249 120.9548 454.0459 120.5558 454.3669 120.1578 454.5269 119.6378 454.5269 118.9958 454.5269 118.6318 454.4659 118.3198 454.3449 118.0598 454.2239 117.7998 454.0589 117.5788 453.8509 117.3968 453.6429 117.2148 453.3959 117.0588 453.1099 116.9288 452.8239 116.7988 452.5159 116.6728 452.1869 116.5518 451.8579 116.4308 451.5329 116.2838 451.2119 116.1098 450.8909 115.9368 450.6009 115.7068 450.3409 115.4208 450.0809 115.1348 449.8729 114.7888 449.7169 114.3808 449.5609 113.9738 449.4829 113.4758 449.4829 112.8858 449.4829 112.3138 449.5829 111.7938 449.7819 111.3258 449.9809 110.8578 450.2549 110.4548 450.6009 110.1168 450.9479 109.7788 451.3549 109.5188 451.8229 109.3368 452.2909 109.1548 452.7939 109.0638 453.3309 109.0638 454.1109 109.0638 454.7829 109.1988 455.3459 109.4668 455.9089 109.7358 456.3729 110.0868 456.7369 110.5198L455.4629 111.9758z" mask="url(#group-9-copy-3-f)"/>
    </g>
  </g>
</svg>
