<svg xmlns="http://www.w3.org/2000/svg" width="176" height="40" viewBox="0 0 176 40">
  <path fill="#292636" d="M5.409 33.769L4.284 34.183C4.113 33.49 3.672 33.067 2.979 33.067 1.818 33.067 1.197 33.913 1.197 35.281 1.197 36.73 1.854 37.666 2.979 37.666 3.681 37.666 4.221 37.27 4.392 36.496L5.49 36.892C5.094 38.062 4.158 38.692 2.934 38.692 1.107 38.692 1.13686838e-13 37.414 1.13686838e-13 35.326 1.13686838e-13 33.238 1.197 32.05 2.997 32.05 4.257 32.05 5.085 32.716 5.409 33.769zM7.31499998 34.066L8.35899998 34.066 8.35899998 36.622C8.35899998 36.892 8.39499998 37.153 8.47599998 37.324 8.59299998 37.567 8.80899998 37.702 9.15099998 37.702 9.44799998 37.702 9.70899998 37.549 9.87099998 37.351 10.06 37.108 10.15 36.811 10.15 36.388L10.15 34.066 11.203 34.066 11.203 38.548 10.168 38.548 10.168 37.909C9.86199998 38.341 9.40299998 38.629 8.77299998 38.629 8.19699998 38.629 7.84599998 38.449 7.59399998 38.089 7.39599998 37.81 7.31499998 37.414 7.31499998 36.892L7.31499998 34.066zM14.486 38.548L13.433 38.548 13.433 34.066 14.441 34.066 14.441 34.759C14.711 34.273 15.062 34.012 15.683 34.012 15.827 34.012 15.935 34.03 16.07 34.066L16.07 35.128C15.899 35.038 15.764 35.002 15.566 35.002 15.215 35.002 14.918 35.155 14.72 35.443 14.567 35.668 14.486 35.983 14.486 36.46L14.486 38.548zM20.3609999 35.749L20.3609999 35.506C20.3609999 35.254 20.3069999 35.083 20.1899999 34.966 20.0639999 34.84 19.8479999 34.777 19.5689999 34.777 19.0199999 34.777 18.7769999 35.056 18.7229999 35.551L17.7149999 35.461C17.7869999 34.489 18.5069999 33.949 19.6499999 33.949 20.2619999 33.949 20.6939999 34.093 20.9909999 34.381 21.2699999 34.642 21.3689999 35.011 21.3689999 35.713L21.3689999 37.36C21.3689999 37.891 21.4049999 38.332 21.4949999 38.548L20.4779999 38.548C20.4419999 38.404 20.3879999 38.125 20.3879999 37.99 20.0459999 38.404 19.5599999 38.629 18.9209999 38.629 18.1019999 38.629 17.5259999 38.116 17.5259999 37.315 17.5259999 36.739 17.8139999 36.361 18.3449999 36.118 18.7859999 35.92 19.6499999 35.794 20.3609999 35.749zM20.3609999 36.658L20.3609999 36.451C19.8479999 36.478 19.2449999 36.568 18.9299999 36.721 18.6509999 36.847 18.5429999 37.018 18.5429999 37.27 18.5429999 37.594 18.7589999 37.837 19.2269999 37.837 19.6319999 37.837 19.9649999 37.666 20.1629999 37.369 20.3069999 37.162 20.3519999 36.91 20.3609999 36.658zM25.7679999 37.693L25.7679999 38.53C25.5339999 38.593 25.2459999 38.629 24.9849999 38.629 24.5439999 38.629 24.2469999 38.521 24.0669999 38.305 23.8779999 38.089 23.8149999 37.774 23.8149999 37.36L23.8149999 34.912 23.1129999 34.912 23.1129999 34.066 23.8329999 34.066 23.8329999 32.608 24.8769999 32.608 24.8769999 34.066 25.7499999 34.066 25.7499999 34.912 24.8769999 34.912 24.8769999 37.153C24.8769999 37.612 25.0119999 37.774 25.3359999 37.774 25.4619999 37.774 25.6239999 37.747 25.7679999 37.693zM30.5539999 37.099L31.4809999 37.423C31.1479999 38.233 30.4639999 38.683 29.5279999 38.683 28.0879999 38.683 27.3139999 37.747 27.3139999 36.262 27.3139999 34.831 28.1779999 33.94 29.4829999 33.94 30.9049999 33.94 31.4989999 34.975 31.5079999 36.577L28.3759999 36.577C28.4119999 37.351 28.8349999 37.792 29.5459999 37.792 30.0049999 37.792 30.3919999 37.612 30.5539999 37.099zM28.3849999 35.821L30.4369999 35.821C30.4009999 35.119 30.0319999 34.759 29.4559999 34.759 28.8799999 34.759 28.4569999 35.119 28.3849999 35.821zM37.4009999 38.548L36.3749999 38.548 36.3749999 37.918C36.0869999 38.341 35.6639999 38.638 35.0339999 38.638 33.9989999 38.638 33.2339999 37.846 33.2339999 36.289 33.2339999 34.822 34.0619999 33.976 35.0969999 33.976 35.7629999 33.976 36.1319999 34.219 36.3749999 34.561L36.3749999 32.194 37.4009999 32.194 37.4009999 38.548zM36.3749999 36.316C36.3749999 35.416 35.9879999 34.849 35.3579999 34.849 34.7369999 34.849 34.3139999 35.326 34.3139999 36.28 34.3139999 37.18 34.6919999 37.756 35.3129999 37.756 35.9339999 37.756 36.3749999 37.27 36.3749999 36.316zM52.5599998 38.548L51.4619998 38.548C51.4619998 35.371 51.4619998 34.471 51.4979998 33.418 51.1109998 34.633 50.9399998 35.146 49.7969998 38.548L48.8069998 38.548C48.0059998 36.055 47.5379998 34.813 47.1149998 33.427 47.1419998 34.561 47.1419998 35.38 47.1419998 38.548L46.0349998 38.548 46.0349998 32.194 47.6819998 32.194C48.4919998 34.552 48.9329998 35.776 49.3199998 37.045 49.6799998 35.812 49.9499998 35.038 50.9129998 32.194L52.5599998 32.194 52.5599998 38.548zM59.0019998 36.352C59.0019998 37.846 58.1199998 38.674 56.8059998 38.674 55.4019998 38.674 54.6099998 37.792 54.6099998 36.298 54.6099998 34.813 55.4829998 33.94 56.8689998 33.94 58.2009998 33.94 59.0019998 34.831 59.0019998 36.352zM57.9399998 36.325C57.9399998 35.326 57.5079998 34.822 56.8419998 34.822 56.1759998 34.822 55.6899998 35.335 55.6899998 36.271 55.6899998 37.288 56.1579998 37.792 56.8149998 37.792 57.4719998 37.792 57.9399998 37.333 57.9399998 36.325zM64.9309997 38.548L63.9049997 38.548 63.9049997 37.918C63.6169997 38.341 63.1939997 38.638 62.5639997 38.638 61.5289997 38.638 60.7639997 37.846 60.7639997 36.289 60.7639997 34.822 61.5919997 33.976 62.6269997 33.976 63.2929997 33.976 63.6619997 34.219 63.9049997 34.561L63.9049997 32.194 64.9309997 32.194 64.9309997 38.548zM63.9049997 36.316C63.9049997 35.416 63.5179997 34.849 62.8879997 34.849 62.2669997 34.849 61.8439997 35.326 61.8439997 36.28 61.8439997 37.18 62.2219997 37.756 62.8429997 37.756 63.4639997 37.756 63.9049997 37.27 63.9049997 36.316zM70.1759997 37.099L71.1029997 37.423C70.7699997 38.233 70.0859997 38.683 69.1499997 38.683 67.7099997 38.683 66.9359997 37.747 66.9359997 36.262 66.9359997 34.831 67.7999997 33.94 69.1049997 33.94 70.5269997 33.94 71.1209997 34.975 71.1299997 36.577L67.9979997 36.577C68.0339997 37.351 68.4569997 37.792 69.1679997 37.792 69.6269997 37.792 70.0139997 37.612 70.1759997 37.099zM68.0069997 35.821L70.0589997 35.821C70.0229997 35.119 69.6539997 34.759 69.0779997 34.759 68.5019997 34.759 68.0789997 35.119 68.0069997 35.821zM74.1519997 38.548L73.0989997 38.548 73.0989997 34.066 74.1069997 34.066 74.1069997 34.759C74.3769997 34.273 74.7279997 34.012 75.3489997 34.012 75.4929997 34.012 75.6009997 34.03 75.7359997 34.066L75.7359997 35.128C75.5649997 35.038 75.4299997 35.002 75.2319997 35.002 74.8809997 35.002 74.5839997 35.155 74.3859997 35.443 74.2329997 35.668 74.1519997 35.983 74.1519997 36.46L74.1519997 38.548zM81.3769997 38.548L80.3239997 38.548 80.3239997 35.974C80.3239997 35.623 80.2879997 35.362 80.1619997 35.182 80.0449997 35.011 79.8469997 34.93 79.5589997 34.93 79.2709997 34.93 78.9739997 35.083 78.7939997 35.326 78.5689997 35.623 78.5329997 35.956 78.5329997 36.388L78.5329997 38.548 77.4799997 38.548 77.4799997 34.066 78.5239997 34.066 78.5239997 34.732C78.8479997 34.273 79.3789997 33.985 80.0089997 33.985 80.5489997 33.985 80.8999997 34.174 81.1249997 34.516 81.3049997 34.786 81.3769997 35.137 81.3769997 35.74L81.3769997 38.548zM89.9569996 32.194L92.6209996 32.194C93.3319996 32.194 93.7639996 32.266 94.0789996 32.437 94.5199996 32.68 94.7809996 33.166 94.7809996 33.769 94.7809996 34.435 94.4209996 34.957 93.6919996 35.173 94.5649996 35.326 95.0059996 35.929 95.0059996 36.757 95.0059996 37.423 94.6999996 37.963 94.2049996 38.251 93.8179996 38.476 93.3319996 38.548 92.4229996 38.548L89.9569996 38.548 89.9569996 32.194zM91.0999996 33.148L91.0999996 34.768 92.4049996 34.768C92.7739996 34.768 93.0709996 34.723 93.2689996 34.624 93.5029996 34.507 93.6289996 34.255 93.6289996 33.958 93.6289996 33.661 93.5479996 33.409 93.2869996 33.274 93.0979996 33.175 92.8369996 33.148 92.4409996 33.148L91.0999996 33.148zM91.0999996 35.713L91.0999996 37.585 92.3329996 37.585C92.8279996 37.585 93.2239996 37.54 93.4849996 37.369 93.6919996 37.234 93.8089996 36.991 93.8089996 36.667 93.8089996 36.334 93.6919996 36.046 93.4489996 35.893 93.2149996 35.749 92.9269996 35.713 92.4409996 35.713L91.0999996 35.713zM97.0019996 34.066L98.0459996 34.066 98.0459996 36.622C98.0459996 36.892 98.0819996 37.153 98.1629996 37.324 98.2799996 37.567 98.4959996 37.702 98.8379996 37.702 99.1349996 37.702 99.3959996 37.549 99.5579996 37.351 99.7469996 37.108 99.8369996 36.811 99.8369996 36.388L99.8369996 34.066 100.89 34.066 100.89 38.548 99.8549996 38.548 99.8549996 37.909C99.5489996 38.341 99.0899996 38.629 98.4599996 38.629 97.8839996 38.629 97.5329996 38.449 97.2809996 38.089 97.0829996 37.81 97.0019996 37.414 97.0019996 36.892L97.0019996 34.066zM102.706 37.666L103.525 37.126C103.759 37.585 104.173 37.855 104.668 37.855 105.127 37.855 105.379 37.657 105.379 37.387 105.379 37.09 105.226 36.964 104.551 36.748L104.074 36.595C103.381 36.379 102.94 35.974 102.94 35.29 102.94 34.588 103.57 33.94 104.677 33.94 105.388 33.94 106.045 34.21 106.441 34.84L105.658 35.371C105.433 34.975 105.091 34.741 104.659 34.741 104.209 34.741 103.993 34.921 103.993 35.182 103.993 35.452 104.137 35.578 104.713 35.758L105.19 35.902C105.982 36.154 106.432 36.523 106.432 37.243 106.432 38.071 105.739 38.674 104.623 38.674 103.705 38.674 103.084 38.233 102.706 37.666zM109.427 34.066L109.427 38.548 108.365 38.548 108.365 34.066 109.427 34.066zM109.427 33.184L108.356 33.184 108.356 32.194 109.427 32.194 109.427 33.184zM115.571999 38.548L114.518999 38.548 114.518999 35.974C114.518999 35.623 114.482999 35.362 114.356999 35.182 114.239999 35.011 114.041999 34.93 113.753999 34.93 113.465999 34.93 113.168999 35.083 112.988999 35.326 112.763999 35.623 112.727999 35.956 112.727999 36.388L112.727999 38.548 111.674999 38.548 111.674999 34.066 112.718999 34.066 112.718999 34.732C113.042999 34.273 113.573999 33.985 114.203999 33.985 114.743999 33.985 115.094999 34.174 115.319999 34.516 115.499999 34.786 115.571999 35.137 115.571999 35.74L115.571999 38.548zM120.762999 37.099L121.689999 37.423C121.356999 38.233 120.672999 38.683 119.736999 38.683 118.296999 38.683 117.522999 37.747 117.522999 36.262 117.522999 34.831 118.386999 33.94 119.691999 33.94 121.113999 33.94 121.707999 34.975 121.716999 36.577L118.584999 36.577C118.620999 37.351 119.043999 37.792 119.754999 37.792 120.213999 37.792 120.600999 37.612 120.762999 37.099zM118.593999 35.821L120.645999 35.821C120.609999 35.119 120.240999 34.759 119.664999 34.759 119.088999 34.759 118.665999 35.119 118.593999 35.821zM123.271999 37.666L124.090999 37.126C124.324999 37.585 124.738999 37.855 125.233999 37.855 125.692999 37.855 125.944999 37.657 125.944999 37.387 125.944999 37.09 125.791999 36.964 125.116999 36.748L124.639999 36.595C123.946999 36.379 123.505999 35.974 123.505999 35.29 123.505999 34.588 124.135999 33.94 125.242999 33.94 125.953999 33.94 126.610999 34.21 127.006999 34.84L126.223999 35.371C125.998999 34.975 125.656999 34.741 125.224999 34.741 124.774999 34.741 124.558999 34.921 124.558999 35.182 124.558999 35.452 124.702999 35.578 125.278999 35.758L125.755999 35.902C126.547999 36.154 126.997999 36.523 126.997999 37.243 126.997999 38.071 126.304999 38.674 125.188999 38.674 124.270999 38.674 123.649999 38.233 123.271999 37.666zM128.516999 37.666L129.335999 37.126C129.569999 37.585 129.983999 37.855 130.478999 37.855 130.937999 37.855 131.189999 37.657 131.189999 37.387 131.189999 37.09 131.036999 36.964 130.361999 36.748L129.884999 36.595C129.191999 36.379 128.750999 35.974 128.750999 35.29 128.750999 34.588 129.380999 33.94 130.487999 33.94 131.198999 33.94 131.855999 34.21 132.251999 34.84L131.468999 35.371C131.243999 34.975 130.901999 34.741 130.469999 34.741 130.019999 34.741 129.803999 34.921 129.803999 35.182 129.803999 35.452 129.947999 35.578 130.523999 35.758L131.000999 35.902C131.792999 36.154 132.242999 36.523 132.242999 37.243 132.242999 38.071 131.549999 38.674 130.433999 38.674 129.515999 38.674 128.894999 38.233 128.516999 37.666zM140.111999 37.243L141.056999 36.568C141.434999 37.324 142.028999 37.693 142.730999 37.693 143.504999 37.693 143.927999 37.387 143.927999 36.892 143.927999 36.442 143.648999 36.262 142.703999 35.929L142.019999 35.686C140.939999 35.299 140.444999 34.804 140.444999 33.886 140.444999 32.797 141.425999 32.05 142.721999 32.05 143.810999 32.05 144.647999 32.509 145.151999 33.346L144.233999 34.003C143.810999 33.283 143.261999 33.022 142.613999 33.022 141.983999 33.022 141.623999 33.337 141.623999 33.769 141.623999 34.183 141.857999 34.39 142.685999 34.66L143.414999 34.903C144.593999 35.281 145.133999 35.812 145.133999 36.766 145.133999 37.909 144.188999 38.701 142.712999 38.701 141.560999 38.701 140.633999 38.161 140.111999 37.243zM149.343999 37.693L149.343999 38.53C149.109999 38.593 148.821999 38.629 148.560999 38.629 148.119999 38.629 147.822999 38.521 147.642999 38.305 147.453999 38.089 147.390999 37.774 147.390999 37.36L147.390999 34.912 146.688999 34.912 146.688999 34.066 147.408999 34.066 147.408999 32.608 148.452999 32.608 148.452999 34.066 149.325999 34.066 149.325999 34.912 148.452999 34.912 148.452999 37.153C148.452999 37.612 148.587999 37.774 148.911999 37.774 149.037999 37.774 149.199999 37.747 149.343999 37.693zM155.281999 36.352C155.281999 37.846 154.399999 38.674 153.085999 38.674 151.681999 38.674 150.889999 37.792 150.889999 36.298 150.889999 34.813 151.762999 33.94 153.148999 33.94 154.480999 33.94 155.281999 34.831 155.281999 36.352zM154.219999 36.325C154.219999 35.326 153.787999 34.822 153.121999 34.822 152.455999 34.822 151.969999 35.335 151.969999 36.271 151.969999 37.288 152.437999 37.792 153.094999 37.792 153.751999 37.792 154.219999 37.333 154.219999 36.325zM158.339999 38.548L157.286999 38.548 157.286999 34.066 158.294999 34.066 158.294999 34.759C158.564999 34.273 158.915999 34.012 159.536999 34.012 159.680999 34.012 159.788999 34.03 159.923999 34.066L159.923999 35.128C159.752999 35.038 159.617999 35.002 159.419999 35.002 159.068999 35.002 158.771999 35.155 158.573999 35.443 158.420999 35.668 158.339999 35.983 158.339999 36.46L158.339999 38.548zM162.729999 34.066L162.729999 38.548 161.667999 38.548 161.667999 34.066 162.729999 34.066zM162.729999 33.184L161.658999 33.184 161.658999 32.194 162.729999 32.194 162.729999 33.184zM167.974999 37.099L168.901999 37.423C168.568999 38.233 167.884999 38.683 166.948999 38.683 165.508999 38.683 164.734999 37.747 164.734999 36.262 164.734999 34.831 165.598999 33.94 166.903999 33.94 168.325999 33.94 168.919999 34.975 168.928999 36.577L165.796999 36.577C165.832999 37.351 166.255999 37.792 166.966999 37.792 167.425999 37.792 167.812999 37.612 167.974999 37.099zM165.805999 35.821L167.857999 35.821C167.821999 35.119 167.452999 34.759 166.876999 34.759 166.300999 34.759 165.877999 35.119 165.805999 35.821zM170.483999 37.666L171.302999 37.126C171.536999 37.585 171.950999 37.855 172.445999 37.855 172.904999 37.855 173.156999 37.657 173.156999 37.387 173.156999 37.09 173.003999 36.964 172.328999 36.748L171.851999 36.595C171.158999 36.379 170.717999 35.974 170.717999 35.29 170.717999 34.588 171.347999 33.94 172.454999 33.94 173.165999 33.94 173.822999 34.21 174.218999 34.84L173.435999 35.371C173.210999 34.975 172.868999 34.741 172.436999 34.741 171.986999 34.741 171.770999 34.921 171.770999 35.182 171.770999 35.452 171.914999 35.578 172.490999 35.758L172.967999 35.902C173.759999 36.154 174.209999 36.523 174.209999 37.243 174.209999 38.071 173.516999 38.674 172.400999 38.674 171.482999 38.674 170.861999 38.233 170.483999 37.666zM15.981 24.548L.341 24.548.341.544 4.659.544 4.659 20.808 15.981 20.808 15.981 24.548zM29.095 25.092C21.921 25.092 17.671 20.162 17.671 12.376 17.671 4.794 22.125 1.0125234e-13 29.095 1.0125234e-13 35.657 1.0125234e-13 39.941 5.032 39.941 12.648 39.941 20.502 35.623 25.092 29.095 25.092zM35.419 12.58C35.419 7.038 32.801 3.842 28.891 3.842 24.777 3.842 22.159 6.97 22.159 12.308 22.159 17.884 24.845 21.25 28.993 21.25 32.767 21.25 35.419 18.326 35.419 12.58zM43.435.544L53.499.544C56.185.544 57.817.816 59.007 1.462 60.673 2.38 61.659 4.216 61.659 6.494 61.659 9.01 60.299 10.982 57.545 11.798 60.843 12.376 62.509 14.654 62.509 17.782 62.509 20.298 61.353 22.338 59.483 23.426 58.021 24.276 56.185 24.548 52.751 24.548L43.435 24.548 43.435.544zM47.753 4.148L47.753 10.268 52.683 10.268C54.077 10.268 55.199 10.098 55.947 9.724 56.831 9.282 57.307 8.33 57.307 7.208 57.307 6.086 57.001 5.134 56.015 4.624 55.301 4.25 54.315 4.148 52.819 4.148L47.753 4.148zM47.753 13.838L47.753 20.91 52.411 20.91C54.281 20.91 55.777 20.74 56.763 20.094 57.545 19.584 57.987 18.666 57.987 17.442 57.987 16.184 57.545 15.096 56.627 14.518 55.743 13.974 54.655 13.838 52.819 13.838L47.753 13.838zM65.233 19.618L68.803 17.068C70.231 19.924 72.475 21.318 75.127 21.318 78.051 21.318 79.649 20.162 79.649 18.292 79.649 16.592 78.595 15.912 75.025 14.654L72.441 13.736C68.361 12.274 66.491 10.404 66.491 6.936 66.491 2.822 70.197 1.0125234e-13 75.093 1.0125234e-13 79.207 1.0125234e-13 82.369 1.734 84.273 4.896L80.805 7.378C79.207 4.658 77.133 3.672 74.685 3.672 72.305 3.672 70.945 4.862 70.945 6.494 70.945 8.058 71.829 8.84 74.957 9.86L77.711 10.778C82.165 12.206 84.205 14.212 84.205 17.816 84.205 22.134 80.635 25.126 75.059 25.126 70.707 25.126 67.205 23.086 65.233 19.618zM98.030473 24.548L93.576473 24.548 93.576473 4.25 86.810473 4.25 86.810473.544 104.830473.544 104.830473 4.25 98.030473 4.25 98.030473 24.548zM126.518473 24.548L109.144473 24.548 109.144473.544 125.838473.544 125.838473 4.25 113.496473 4.25 113.496473 10.37 124.886473 10.37 124.886473 14.076 113.496473 14.076 113.496473 20.808 126.518473 20.808 126.518473 24.548zM150.622473 24.548L145.590473 24.548 139.538473 14.96 135.424473 14.96 135.424473 24.548 131.140473 24.548 131.140473.544 138.926473.544C142.020473.544 144.400473.68 146.168473 1.394 148.616473 2.38 149.772473 4.352 149.772473 7.582 149.772473 11.526 147.562473 13.702 143.788473 14.314L150.622473 24.548zM135.424473 11.492L139.912473 11.492C142.088473 11.492 143.312473 11.22 144.094473 10.608 144.876473 9.996 145.284473 9.01 145.284473 7.786 145.284473 6.528 144.978473 5.508 143.958473 4.862 143.176473 4.352 141.952473 4.148 140.048473 4.148L135.424473 4.148 135.424473 11.492zM173.780473 24.548L168.748473 24.548 162.696473 14.96 158.582473 14.96 158.582473 24.548 154.298473 24.548 154.298473.544 162.084473.544C165.178473.544 167.558473.68 169.326473 1.394 171.774473 2.38 172.930473 4.352 172.930473 7.582 172.930473 11.526 170.720473 13.702 166.946473 14.314L173.780473 24.548zM158.582473 11.492L163.070473 11.492C165.246473 11.492 166.470473 11.22 167.252473 10.608 168.034473 9.996 168.442473 9.01 168.442473 7.786 168.442473 6.528 168.136473 5.508 167.116473 4.862 166.334473 4.352 165.110473 4.148 163.206473 4.148L158.582473 4.148 158.582473 11.492z" transform="translate(.869 .452)"/>
</svg>
