<svg xmlns="http://www.w3.org/2000/svg" width="175" height="42" viewBox="0 0 175 42">
  <g fill="#292636" fill-rule="evenodd" transform="translate(-2 -1)">
    <path fill-rule="nonzero" stroke="#292636" stroke-width=".2" d="M8.08,37.185 L7.333,37.464 C7.108,36.627 6.577,36.204 5.776,36.204 C4.516,36.204 3.724,37.113 3.724,38.715 C3.724,40.389 4.534,41.424 5.776,41.424 C6.559,41.424 7.234,41.046 7.45,40.101 L8.206,40.371 C7.801,41.568 6.874,42.126 5.704,42.126 C3.976,42.126 2.914,40.848 2.914,38.787 C2.914,36.663 4.102,35.52 5.776,35.52 C6.91,35.52 7.774,36.087 8.08,37.185 Z M10.208,37.554 L10.91,37.554 L10.91,40.218 C10.91,40.551 10.955,40.857 11.09,41.073 C11.234,41.298 11.513,41.442 11.873,41.442 C12.188,41.442 12.476,41.298 12.674,41.082 C12.917,40.812 13.061,40.425 13.061,40.002 L13.061,37.554 L13.772,37.554 L13.772,42 L13.061,42 L13.061,41.343 C12.737,41.775 12.26,42.072 11.639,42.072 C11.099,42.072 10.721,41.874 10.478,41.541 C10.28,41.262 10.208,40.812 10.208,40.38 L10.208,37.554 Z M17.0249999,42 L16.3139999,42 L16.3139999,37.554 L16.9889999,37.554 L16.9889999,38.274 C17.2589999,37.743 17.6639999,37.5 18.2489999,37.5 C18.4019999,37.5 18.5009999,37.518 18.6539999,37.554 L18.6539999,38.31 C18.5099999,38.229 18.3659999,38.193 18.1679999,38.193 C17.7629999,38.193 17.4119999,38.355 17.1959999,38.76 C17.0879999,38.958 17.0249999,39.3 17.0249999,39.777 L17.0249999,42 Z M22.8969999,39.273 L22.8969999,38.904 C22.8969999,38.328 22.5909999,38.04 21.9789999,38.04 C21.2949999,38.04 20.9889999,38.328 20.9349999,38.958 L20.2239999,38.877 C20.2959999,37.95 21.0069999,37.437 22.0149999,37.437 C22.5729999,37.437 22.9869999,37.59 23.2479999,37.878 C23.4909999,38.13 23.5809999,38.508 23.5809999,39.183 L23.5809999,40.614 C23.5809999,40.803 23.5899999,41.082 23.6079999,41.208 C23.6349999,41.397 23.7609999,41.469 23.9859999,41.469 C24.0399999,41.469 24.1029999,41.46 24.1569999,41.451 L24.1569999,41.991 C24.0399999,42.009 23.9049999,42.018 23.7879999,42.018 C23.1939999,42.018 22.9689999,41.793 22.9239999,41.334 C22.6179999,41.811 22.0959999,42.072 21.4479999,42.072 C20.6739999,42.072 20.0619999,41.568 20.0619999,40.821 C20.0619999,40.218 20.3769999,39.858 20.8899999,39.633 C21.2859999,39.462 22.0689999,39.327 22.8969999,39.273 Z M22.8969999,40.029 L22.8969999,39.795 C22.4379999,39.813 21.6729999,39.912 21.2859999,40.083 C20.9169999,40.245 20.7639999,40.47 20.7639999,40.785 C20.7639999,41.262 21.0969999,41.496 21.6009999,41.496 C22.1949999,41.496 22.6989999,41.118 22.8429999,40.524 C22.8789999,40.371 22.8969999,40.164 22.8969999,40.029 Z M27.9319998,41.379 L27.9319998,41.973 C27.7519998,42.036 27.4999998,42.063 27.3199998,42.063 C26.7169998,42.063 26.3119998,41.847 26.3119998,40.947 L26.3119998,38.148 L25.5199998,38.148 L25.5199998,37.554 L26.3209998,37.554 L26.3209998,36.114 L27.0229998,36.114 L27.0229998,37.554 L27.9139998,37.554 L27.9139998,38.148 L27.0229998,38.148 L27.0229998,40.767 C27.0229998,41.262 27.1669998,41.469 27.5269998,41.469 C27.6619998,41.469 27.7699998,41.442 27.9319998,41.379 Z M33.0119998,40.641 L33.6419998,40.848 C33.3809998,41.658 32.6519998,42.108 31.7969998,42.108 C30.4109998,42.108 29.6909998,41.163 29.6909998,39.723 C29.6909998,38.328 30.5279998,37.437 31.7519998,37.437 C32.9759998,37.437 33.6419998,38.283 33.6509998,39.885 L30.4109998,39.885 C30.4109998,40.857 30.9059998,41.505 31.8149998,41.505 C32.3549998,41.505 32.8319998,41.307 33.0119998,40.641 Z M32.9219998,39.327 C32.8589998,38.382 32.3909998,38.022 31.7339998,38.022 C31.0589998,38.022 30.5189998,38.427 30.4199998,39.327 L32.9219998,39.327 Z M39.4959997,42 L38.7849997,42 L38.7849997,41.334 C38.4519997,41.802 38.0109997,42.081 37.3449997,42.081 C36.3099997,42.081 35.6349997,41.208 35.6349997,39.777 C35.6349997,38.337 36.4539997,37.482 37.4529997,37.482 C38.1999997,37.482 38.5419997,37.761 38.7849997,38.13 L38.7849997,35.646 L39.4959997,35.646 L39.4959997,42 Z M38.7939997,39.849 C38.7939997,38.715 38.3349997,38.094 37.5609997,38.094 C36.8049997,38.094 36.3729997,38.688 36.3729997,39.786 C36.3729997,40.857 36.8229997,41.469 37.5249997,41.469 C38.2719997,41.469 38.7939997,40.839 38.7939997,39.849 Z M54.6189996,42 L53.8899996,42 C53.8989996,38.967 53.8899996,37.725 53.9349996,36.402 C53.4129996,37.923 53.2329996,38.382 51.9189996,42 L51.2979996,42 C50.6229996,40.146 49.8759996,38.265 49.2729996,36.429 C49.3089996,37.914 49.3179996,38.922 49.3179996,42 L48.5889996,42 L48.5889996,35.646 L49.6869996,35.646 C50.3439996,37.401 51.0279996,39.156 51.6219996,40.911 C52.1709996,39.228 52.5129996,38.418 53.5029996,35.646 L54.6189996,35.646 L54.6189996,42 Z M59.0149995,42.108 C57.6649995,42.108 56.9449995,41.19 56.9449995,39.75 C56.9449995,38.328 57.7459995,37.437 59.0689995,37.437 C60.3199995,37.437 61.0669995,38.337 61.0669995,39.804 C61.0669995,41.217 60.2749995,42.108 59.0149995,42.108 Z M60.3289995,39.804 C60.3289995,38.715 59.8429995,38.04 59.0419995,38.04 C58.2139995,38.04 57.6829995,38.688 57.6829995,39.696 C57.6829995,40.821 58.2049995,41.505 59.0059995,41.505 C59.8159995,41.505 60.3289995,40.866 60.3289995,39.804 Z M66.9299995,42 L66.2189995,42 L66.2189995,41.334 C65.8859995,41.802 65.4449995,42.081 64.7789995,42.081 C63.7439995,42.081 63.0689995,41.208 63.0689995,39.777 C63.0689995,38.337 63.8879995,37.482 64.8869995,37.482 C65.6339995,37.482 65.9759995,37.761 66.2189995,38.13 L66.2189995,35.646 L66.9299995,35.646 L66.9299995,42 Z M66.2279995,39.849 C66.2279995,38.715 65.7689995,38.094 64.9949995,38.094 C64.2389995,38.094 63.8069995,38.688 63.8069995,39.786 C63.8069995,40.857 64.2569995,41.469 64.9589995,41.469 C65.7059995,41.469 66.2279995,40.839 66.2279995,39.849 Z M72.5139994,40.641 L73.1439994,40.848 C72.8829994,41.658 72.1539994,42.108 71.2989994,42.108 C69.9129994,42.108 69.1929994,41.163 69.1929994,39.723 C69.1929994,38.328 70.0299994,37.437 71.2539994,37.437 C72.4779994,37.437 73.1439994,38.283 73.1529994,39.885 L69.9129994,39.885 C69.9129994,40.857 70.4079994,41.505 71.3169994,41.505 C71.8569994,41.505 72.3339994,41.307 72.5139994,40.641 Z M72.4239994,39.327 C72.3609994,38.382 71.8929994,38.022 71.2359994,38.022 C70.5609994,38.022 70.0209994,38.427 69.9219994,39.327 L72.4239994,39.327 Z M76.1179994,42 L75.4069994,42 L75.4069994,37.554 L76.0819994,37.554 L76.0819994,38.274 C76.3519994,37.743 76.7569994,37.5 77.3419994,37.5 C77.4949994,37.5 77.5939994,37.518 77.7469994,37.554 L77.7469994,38.31 C77.6029994,38.229 77.4589994,38.193 77.2609994,38.193 C76.8559994,38.193 76.5049994,38.355 76.2889994,38.76 C76.1809994,38.958 76.1179994,39.3 76.1179994,39.777 L76.1179994,42 Z M83.2679993,42 L82.5659993,42 L82.5659993,39.318 C82.5659993,38.958 82.5299993,38.652 82.3859993,38.436 C82.2509993,38.229 82.0169993,38.112 81.6479993,38.112 C81.3509993,38.112 80.9999993,38.265 80.7479993,38.571 C80.4329993,38.949 80.4149993,39.417 80.4149993,39.867 L80.4149993,42 L79.7039993,42 L79.7039993,37.554 L80.4149993,37.554 L80.4149993,38.247 C80.7209993,37.77 81.2879993,37.482 81.9089993,37.482 C82.5029993,37.482 82.8449993,37.716 83.0609993,38.076 C83.2229993,38.346 83.2679993,38.67 83.2679993,39.282 L83.2679993,42 Z M92.3159992,35.646 L94.8269992,35.646 C95.5019992,35.646 95.8709992,35.709 96.1679992,35.889 C96.5819992,36.132 96.8249992,36.609 96.8249992,37.176 C96.8249992,37.86 96.4739992,38.4 95.7359992,38.598 C96.6179992,38.742 97.0589992,39.39 97.0589992,40.227 C97.0589992,40.92 96.7619992,41.46 96.2489992,41.739 C95.8709992,41.937 95.4299992,42 94.5299992,42 L92.3159992,42 L92.3159992,35.646 Z M93.0899992,36.321 L93.0899992,38.301 L94.5299992,38.301 C94.8899992,38.301 95.3579992,38.238 95.5379992,38.148 C95.8619992,37.986 96.0509992,37.671 96.0509992,37.257 C96.0509992,36.987 95.9609992,36.771 95.8079992,36.6 C95.5829992,36.357 95.2859992,36.321 94.6109992,36.321 L93.0899992,36.321 Z M93.0899992,38.976 L93.0899992,41.316 L94.3949992,41.316 C94.8089992,41.316 95.2949992,41.316 95.6279992,41.181 C96.0149992,41.028 96.2579992,40.695 96.2579992,40.2 C96.2579992,39.408 95.7089992,38.976 94.7909992,38.976 L93.0899992,38.976 Z M99.2859991,37.554 L99.9879991,37.554 L99.9879991,40.218 C99.9879991,40.551 100.032999,40.857 100.167999,41.073 C100.311999,41.298 100.590999,41.442 100.950999,41.442 C101.265999,41.442 101.553999,41.298 101.751999,41.082 C101.994999,40.812 102.138999,40.425 102.138999,40.002 L102.138999,37.554 L102.849999,37.554 L102.849999,42 L102.138999,42 L102.138999,41.343 C101.814999,41.775 101.337999,42.072 100.716999,42.072 C100.176999,42.072 99.7989991,41.874 99.5559991,41.541 C99.3579991,41.262 99.2859991,40.812 99.2859991,40.38 L99.2859991,37.554 Z M104.950999,40.938 L105.607999,40.632 C105.778999,41.19 106.192999,41.523 106.759999,41.523 C107.317999,41.523 107.704999,41.289 107.704999,40.893 C107.704999,40.488 107.506999,40.344 106.768999,40.092 L106.291999,39.93 C105.562999,39.687 105.184999,39.282 105.184999,38.661 C105.184999,37.995 105.814999,37.428 106.777999,37.428 C107.497999,37.428 108.100999,37.743 108.415999,38.49 L107.767999,38.778 C107.632999,38.328 107.308999,37.995 106.768999,37.995 C106.174999,37.995 105.877999,38.274 105.877999,38.616 C105.877999,38.976 106.075999,39.147 106.714999,39.345 L107.146999,39.48 C107.875999,39.705 108.415999,40.029 108.415999,40.785 C108.415999,41.577 107.758999,42.108 106.759999,42.108 C105.742999,42.108 105.193999,41.55 104.950999,40.938 Z M111.326999,42 L110.615999,42 L110.615999,37.554 L111.326999,37.554 L111.326999,42 Z M111.335999,36.447 L110.606999,36.447 L110.606999,35.646 L111.335999,35.646 L111.335999,36.447 Z M117.432999,42 L116.730999,42 L116.730999,39.318 C116.730999,38.958 116.694999,38.652 116.550999,38.436 C116.415999,38.229 116.181999,38.112 115.812999,38.112 C115.515999,38.112 115.164999,38.265 114.912999,38.571 C114.597999,38.949 114.579999,39.417 114.579999,39.867 L114.579999,42 L113.868999,42 L113.868999,37.554 L114.579999,37.554 L114.579999,38.247 C114.885999,37.77 115.452999,37.482 116.073999,37.482 C116.667999,37.482 117.009999,37.716 117.225999,38.076 C117.387999,38.346 117.432999,38.67 117.432999,39.282 L117.432999,42 Z M122.971999,40.641 L123.601999,40.848 C123.340999,41.658 122.611999,42.108 121.756999,42.108 C120.370999,42.108 119.650999,41.163 119.650999,39.723 C119.650999,38.328 120.487999,37.437 121.711999,37.437 C122.935999,37.437 123.601999,38.283 123.610999,39.885 L120.370999,39.885 C120.370999,40.857 120.865999,41.505 121.774999,41.505 C122.314999,41.505 122.791999,41.307 122.971999,40.641 Z M122.881999,39.327 C122.818999,38.382 122.350999,38.022 121.693999,38.022 C121.018999,38.022 120.478999,38.427 120.379999,39.327 L122.881999,39.327 Z M125.423999,40.938 L126.080999,40.632 C126.251999,41.19 126.665999,41.523 127.232999,41.523 C127.790999,41.523 128.177999,41.289 128.177999,40.893 C128.177999,40.488 127.979999,40.344 127.241999,40.092 L126.764999,39.93 C126.035999,39.687 125.657999,39.282 125.657999,38.661 C125.657999,37.995 126.287999,37.428 127.250999,37.428 C127.970999,37.428 128.573999,37.743 128.888999,38.49 L128.240999,38.778 C128.105999,38.328 127.781999,37.995 127.241999,37.995 C126.647999,37.995 126.350999,38.274 126.350999,38.616 C126.350999,38.976 126.548999,39.147 127.187999,39.345 L127.619999,39.48 C128.348999,39.705 128.888999,40.029 128.888999,40.785 C128.888999,41.577 128.231999,42.108 127.232999,42.108 C126.215999,42.108 125.666999,41.55 125.423999,40.938 Z M130.647999,40.938 L131.304999,40.632 C131.475999,41.19 131.889999,41.523 132.456999,41.523 C133.014999,41.523 133.401999,41.289 133.401999,40.893 C133.401999,40.488 133.203999,40.344 132.465999,40.092 L131.988999,39.93 C131.259999,39.687 130.881999,39.282 130.881999,38.661 C130.881999,37.995 131.511999,37.428 132.474999,37.428 C133.194999,37.428 133.797999,37.743 134.112999,38.49 L133.464999,38.778 C133.329999,38.328 133.005999,37.995 132.465999,37.995 C131.871999,37.995 131.574999,38.274 131.574999,38.616 C131.574999,38.976 131.772999,39.147 132.411999,39.345 L132.843999,39.48 C133.572999,39.705 134.112999,40.029 134.112999,40.785 C134.112999,41.577 133.455999,42.108 132.456999,42.108 C131.439999,42.108 130.890999,41.55 130.647999,40.938 Z M142.395999,40.425 L143.115999,40.092 C143.421999,40.983 143.952999,41.46 144.861999,41.46 C145.716999,41.46 146.328999,41.055 146.328999,40.344 C146.328999,39.759 146.031999,39.534 144.987999,39.192 L144.465999,39.021 C143.277999,38.634 142.728999,38.148 142.728999,37.239 C142.728999,36.213 143.664999,35.52 144.825999,35.52 C145.878999,35.52 146.733999,35.97 147.129999,36.933 L146.436999,37.275 C146.157999,36.492 145.563999,36.168 144.861999,36.168 C143.988999,36.168 143.520999,36.6 143.520999,37.185 C143.520999,37.743 143.862999,37.95 144.888999,38.292 L145.428999,38.472 C146.625999,38.868 147.147999,39.345 147.147999,40.299 C147.147999,41.433 146.166999,42.135 144.861999,42.135 C143.574999,42.135 142.791999,41.478 142.395999,40.425 Z M151.318999,41.379 L151.318999,41.973 C151.138999,42.036 150.886999,42.063 150.706999,42.063 C150.103999,42.063 149.698999,41.847 149.698999,40.947 L149.698999,38.148 L148.906999,38.148 L148.906999,37.554 L149.707999,37.554 L149.707999,36.114 L150.409999,36.114 L150.409999,37.554 L151.300999,37.554 L151.300999,38.148 L150.409999,38.148 L150.409999,40.767 C150.409999,41.262 150.553999,41.469 150.913999,41.469 C151.048999,41.469 151.156999,41.442 151.318999,41.379 Z M155.147999,42.108 C153.797999,42.108 153.077999,41.19 153.077999,39.75 C153.077999,38.328 153.878999,37.437 155.201999,37.437 C156.452999,37.437 157.199999,38.337 157.199999,39.804 C157.199999,41.217 156.407999,42.108 155.147999,42.108 Z M156.461999,39.804 C156.461999,38.715 155.975999,38.04 155.174999,38.04 C154.346999,38.04 153.815999,38.688 153.815999,39.696 C153.815999,40.821 154.337999,41.505 155.138999,41.505 C155.948999,41.505 156.461999,40.866 156.461999,39.804 Z M160.182999,42 L159.471999,42 L159.471999,37.554 L160.146999,37.554 L160.146999,38.274 C160.416999,37.743 160.821999,37.5 161.406999,37.5 C161.559999,37.5 161.658999,37.518 161.811999,37.554 L161.811999,38.31 C161.667999,38.229 161.523999,38.193 161.325999,38.193 C160.920999,38.193 160.569999,38.355 160.353999,38.76 C160.245999,38.958 160.182999,39.3 160.182999,39.777 L160.182999,42 Z M164.479999,42 L163.768999,42 L163.768999,37.554 L164.479999,37.554 L164.479999,42 Z M164.488999,36.447 L163.759999,36.447 L163.759999,35.646 L164.488999,35.646 L164.488999,36.447 Z M170.072998,40.641 L170.702998,40.848 C170.441998,41.658 169.712998,42.108 168.857998,42.108 C167.471998,42.108 166.751998,41.163 166.751998,39.723 C166.751998,38.328 167.588998,37.437 168.812998,37.437 C170.036998,37.437 170.702998,38.283 170.711998,39.885 L167.471998,39.885 C167.471998,40.857 167.966998,41.505 168.875998,41.505 C169.415998,41.505 169.892998,41.307 170.072998,40.641 Z M169.982998,39.327 C169.919998,38.382 169.451998,38.022 168.794998,38.022 C168.119998,38.022 167.579998,38.427 167.480998,39.327 L169.982998,39.327 Z M172.524998,40.938 L173.181998,40.632 C173.352998,41.19 173.766998,41.523 174.333998,41.523 C174.891998,41.523 175.278998,41.289 175.278998,40.893 C175.278998,40.488 175.080998,40.344 174.342998,40.092 L173.865998,39.93 C173.136998,39.687 172.758998,39.282 172.758998,38.661 C172.758998,37.995 173.388998,37.428 174.351998,37.428 C175.071998,37.428 175.674998,37.743 175.989998,38.49 L175.341998,38.778 C175.206998,38.328 174.882998,37.995 174.342998,37.995 C173.748998,37.995 173.451998,38.274 173.451998,38.616 C173.451998,38.976 173.649998,39.147 174.288998,39.345 L174.720998,39.48 C175.449998,39.705 175.989998,40.029 175.989998,40.785 C175.989998,41.577 175.332998,42.108 174.333998,42.108 C173.316998,42.108 172.767998,41.55 172.524998,40.938 Z"/>
    <text font-family="AkzidGrtskNext-Regular, Akzidenz-Grotesk Next" font-size="34" letter-spacing="1.789">
      <tspan x="0" y="26">LOBSTERR</tspan>
    </text>
  </g>
</svg>
