<svg xmlns="http://www.w3.org/2000/svg" width="236" height="58" viewBox="0 0 236 58">
  <g fill="#141953" transform="translate(-1 -1)">
    <path d="M10.3 49.975L9.055 50.44C8.68 49.045 7.795 48.34 6.46 48.34 4.36 48.34 3.04 49.855 3.04 52.525 3.04 55.315 4.39 57.04 6.46 57.04 7.765 57.04 8.89 56.41 9.25 54.835L10.51 55.285C9.835 57.28 8.29 58.21 6.34 58.21 3.46 58.21 1.69 56.08 1.69 52.645 1.69 49.105 3.67 47.2 6.46 47.2 8.35 47.2 9.79 48.145 10.3 49.975zM12.788333 50.59L13.958333 50.59 13.958333 55.03C13.958333 55.585 14.033333 56.095 14.258333 56.455 14.498333 56.83 14.963333 57.07 15.563333 57.07 16.088333 57.07 16.568333 56.83 16.898333 56.47 17.303333 56.02 17.543333 55.375 17.543333 54.67L17.543333 50.59 18.728333 50.59 18.728333 58 17.543333 58 17.543333 56.905C17.003333 57.625 16.208333 58.12 15.173333 58.12 14.273333 58.12 13.643333 57.79 13.238333 57.235 12.908333 56.77 12.788333 56.02 12.788333 55.3L12.788333 50.59zM23.091666 58L21.906666 58 21.906666 50.59 23.031666 50.59 23.031666 51.79C23.481666 50.905 24.156666 50.5 25.131666 50.5 25.386666 50.5 25.551666 50.53 25.806666 50.59L25.806666 51.85C25.566666 51.715 25.326666 51.655 24.996666 51.655 24.321666 51.655 23.736666 51.925 23.376666 52.6 23.196666 52.93 23.091666 53.5 23.091666 54.295L23.091666 58zM31.819999 53.455L31.819999 52.84C31.819999 51.88 31.309999 51.4 30.289999 51.4 29.149999 51.4 28.639999 51.88 28.549999 52.93L27.364999 52.795C27.484999 51.25 28.669999 50.395 30.349999 50.395 31.279999 50.395 31.969999 50.65 32.404999 51.13 32.809999 51.55 32.959999 52.18 32.959999 53.305L32.959999 55.69C32.959999 56.005 32.974999 56.47 33.004999 56.68 33.049999 56.995 33.259999 57.115 33.634999 57.115 33.724999 57.115 33.829999 57.1 33.919999 57.085L33.919999 57.985C33.724999 58.015 33.499999 58.03 33.304999 58.03 32.314999 58.03 31.939999 57.655 31.864999 56.89 31.354999 57.685 30.484999 58.12 29.404999 58.12 28.114999 58.12 27.094999 57.28 27.094999 56.035 27.094999 55.03 27.619999 54.43 28.474999 54.055 29.134999 53.77 30.439999 53.545 31.819999 53.455zM31.819999 54.715L31.819999 54.325C31.054999 54.355 29.779999 54.52 29.134999 54.805 28.519999 55.075 28.264999 55.45 28.264999 55.975 28.264999 56.77 28.819999 57.16 29.659999 57.16 30.649999 57.16 31.489999 56.53 31.729999 55.54 31.789999 55.285 31.819999 54.94 31.819999 54.715zM39.153332 56.965L39.153332 57.955C38.853332 58.06 38.433332 58.105 38.133332 58.105 37.128332 58.105 36.453332 57.745 36.453332 56.245L36.453332 51.58 35.133332 51.58 35.133332 50.59 36.468332 50.59 36.468332 48.19 37.638332 48.19 37.638332 50.59 39.123332 50.59 39.123332 51.58 37.638332 51.58 37.638332 55.945C37.638332 56.77 37.878332 57.115 38.478332 57.115 38.703332 57.115 38.883332 57.07 39.153332 56.965zM46.561665 55.735L47.611665 56.08C47.176665 57.43 45.961665 58.18 44.536665 58.18 42.226665 58.18 41.026665 56.605 41.026665 54.205 41.026665 51.88 42.421665 50.395 44.461665 50.395 46.501665 50.395 47.611665 51.805 47.626665 54.475L42.226665 54.475C42.226665 56.095 43.051665 57.175 44.566665 57.175 45.466665 57.175 46.261665 56.845 46.561665 55.735zM46.411665 53.545C46.306665 51.97 45.526665 51.37 44.431665 51.37 43.306665 51.37 42.406665 52.045 42.241665 53.545L46.411665 53.545zM56.309998 58L55.124998 58 55.124998 56.89C54.569998 57.67 53.834998 58.135 52.724998 58.135 50.999998 58.135 49.874998 56.68 49.874998 54.295 49.874998 51.895 51.239998 50.47 52.904998 50.47 54.149998 50.47 54.719998 50.935 55.124998 51.55L55.124998 47.41 56.309998 47.41 56.309998 58zM55.139998 54.415C55.139998 52.525 54.374998 51.49 53.084998 51.49 51.824998 51.49 51.104998 52.48 51.104998 54.31 51.104998 56.095 51.854998 57.115 53.024998 57.115 54.269998 57.115 55.139998 56.065 55.139998 54.415zM73.976664 58L72.761664 58C72.776664 52.945 72.761664 50.875 72.836664 48.67 71.966664 51.205 71.666664 51.97 69.476664 58L68.441664 58C67.316664 54.91 66.071664 51.775 65.066664 48.715 65.126664 51.19 65.141664 52.87 65.141664 58L63.926664 58 63.926664 47.41 65.756664 47.41C66.851664 50.335 67.991664 53.26 68.981664 56.185 69.896664 53.38 70.466664 52.03 72.116664 47.41L73.976664 47.41 73.976664 58zM80.244997 58.18C77.994997 58.18 76.794997 56.65 76.794997 54.25 76.794997 51.88 78.129997 50.395 80.334997 50.395 82.419997 50.395 83.664997 51.895 83.664997 54.34 83.664997 56.695 82.344997 58.18 80.244997 58.18zM82.434997 54.34C82.434997 52.525 81.624997 51.4 80.289997 51.4 78.909997 51.4 78.024997 52.48 78.024997 54.16 78.024997 56.035 78.894997 57.175 80.229997 57.175 81.579997 57.175 82.434997 56.11 82.434997 54.34zM92.37833 58L91.19333 58 91.19333 56.89C90.63833 57.67 89.90333 58.135 88.79333 58.135 87.06833 58.135 85.94333 56.68 85.94333 54.295 85.94333 51.895 87.30833 50.47 88.97333 50.47 90.21833 50.47 90.78833 50.935 91.19333 51.55L91.19333 47.41 92.37833 47.41 92.37833 58zM91.20833 54.415C91.20833 52.525 90.44333 51.49 89.15333 51.49 87.89333 51.49 87.17333 52.48 87.17333 54.31 87.17333 56.095 87.92333 57.115 89.09333 57.115 90.33833 57.115 91.20833 56.065 91.20833 54.415zM100.626663 55.735L101.676663 56.08C101.241663 57.43 100.026663 58.18 98.601663 58.18 96.291663 58.18 95.091663 56.605 95.091663 54.205 95.091663 51.88 96.486663 50.395 98.526663 50.395 100.566663 50.395 101.676663 51.805 101.691663 54.475L96.291663 54.475C96.291663 56.095 97.116663 57.175 98.631663 57.175 99.531663 57.175 100.326663 56.845 100.626663 55.735zM100.476663 53.545C100.371663 51.97 99.591663 51.37 98.496663 51.37 97.371663 51.37 96.471663 52.045 96.306663 53.545L100.476663 53.545zM105.574996 58L104.389996 58 104.389996 50.59 105.514996 50.59 105.514996 51.79C105.964996 50.905 106.639996 50.5 107.614996 50.5 107.869996 50.5 108.034996 50.53 108.289996 50.59L108.289996 51.85C108.049996 51.715 107.809996 51.655 107.479996 51.655 106.804996 51.655 106.219996 51.925 105.859996 52.6 105.679996 52.93 105.574996 53.5 105.574996 54.295L105.574996 58zM116.433329 58L115.263329 58 115.263329 53.53C115.263329 52.93 115.203329 52.42 114.963329 52.06 114.738329 51.715 114.348329 51.52 113.733329 51.52 113.238329 51.52 112.653329 51.775 112.233329 52.285 111.708329 52.915 111.678329 53.695 111.678329 54.445L111.678329 58 110.493329 58 110.493329 50.59 111.678329 50.59 111.678329 51.745C112.188329 50.95 113.133329 50.47 114.168329 50.47 115.158329 50.47 115.728329 50.86 116.088329 51.46 116.358329 51.91 116.433329 52.45 116.433329 53.47L116.433329 58zM123.974995 47.41L128.159995 47.41C129.284995 47.41 129.899995 47.515 130.394995 47.815 131.084995 48.22 131.489995 49.015 131.489995 49.96 131.489995 51.1 130.904995 52 129.674995 52.33 131.144995 52.57 131.879995 53.65 131.879995 55.045 131.879995 56.2 131.384995 57.1 130.529995 57.565 129.899995 57.895 129.164995 58 127.664995 58L123.974995 58 123.974995 47.41zM125.264995 48.535L125.264995 51.835 127.664995 51.835C128.264995 51.835 129.044995 51.73 129.344995 51.58 129.884995 51.31 130.199995 50.785 130.199995 50.095 130.199995 49.645 130.049995 49.285 129.794995 49 129.419995 48.595 128.924995 48.535 127.799995 48.535L125.264995 48.535zM125.264995 52.96L125.264995 56.86 127.439995 56.86C128.129995 56.86 128.939995 56.86 129.494995 56.635 130.139995 56.38 130.544995 55.825 130.544995 55 130.544995 53.68 129.629995 52.96 128.099995 52.96L125.264995 52.96zM134.533328 50.59L135.703328 50.59 135.703328 55.03C135.703328 55.585 135.778328 56.095 136.003328 56.455 136.243328 56.83 136.708328 57.07 137.308328 57.07 137.833328 57.07 138.313328 56.83 138.643328 56.47 139.048328 56.02 139.288328 55.375 139.288328 54.67L139.288328 50.59 140.473328 50.59 140.473328 58 139.288328 58 139.288328 56.905C138.748328 57.625 137.953328 58.12 136.918328 58.12 136.018328 58.12 135.388328 57.79 134.983328 57.235 134.653328 56.77 134.533328 56.02 134.533328 55.3L134.533328 50.59zM142.916661 56.23L144.011661 55.72C144.296661 56.65 144.986661 57.205 145.931661 57.205 146.861661 57.205 147.506661 56.815 147.506661 56.155 147.506661 55.48 147.176661 55.24 145.946661 54.82L145.151661 54.55C143.936661 54.145 143.306661 53.47 143.306661 52.435 143.306661 51.325 144.356661 50.38 145.961661 50.38 147.161661 50.38 148.166661 50.905 148.691661 52.15L147.611661 52.63C147.386661 51.88 146.846661 51.325 145.946661 51.325 144.956661 51.325 144.461661 51.79 144.461661 52.36 144.461661 52.96 144.791661 53.245 145.856661 53.575L146.576661 53.8C147.791661 54.175 148.691661 54.715 148.691661 55.975 148.691661 57.295 147.596661 58.18 145.931661 58.18 144.236661 58.18 143.321661 57.25 142.916661 56.23zM152.484994 58L151.299994 58 151.299994 50.59 152.484994 50.59 152.484994 58zM152.499994 48.745L151.284994 48.745 151.284994 47.41 152.499994 47.41 152.499994 48.745zM161.603327 58L160.433327 58 160.433327 53.53C160.433327 52.93 160.373327 52.42 160.133327 52.06 159.908327 51.715 159.518327 51.52 158.903327 51.52 158.408327 51.52 157.823327 51.775 157.403327 52.285 156.878327 52.915 156.848327 53.695 156.848327 54.445L156.848327 58 155.663327 58 155.663327 50.59 156.848327 50.59 156.848327 51.745C157.358327 50.95 158.303327 50.47 159.338327 50.47 160.328327 50.47 160.898327 50.86 161.258327 51.46 161.528327 51.91 161.603327 52.45 161.603327 53.47L161.603327 58zM169.77666 55.735L170.82666 56.08C170.39166 57.43 169.17666 58.18 167.75166 58.18 165.44166 58.18 164.24166 56.605 164.24166 54.205 164.24166 51.88 165.63666 50.395 167.67666 50.395 169.71666 50.395 170.82666 51.805 170.84166 54.475L165.44166 54.475C165.44166 56.095 166.26666 57.175 167.78166 57.175 168.68166 57.175 169.47666 56.845 169.77666 55.735zM169.62666 53.545C169.52166 51.97 168.74166 51.37 167.64666 51.37 166.52166 51.37 165.62166 52.045 165.45666 53.545L169.62666 53.545zM172.804993 56.23L173.899993 55.72C174.184993 56.65 174.874993 57.205 175.819993 57.205 176.749993 57.205 177.394993 56.815 177.394993 56.155 177.394993 55.48 177.064993 55.24 175.834993 54.82L175.039993 54.55C173.824993 54.145 173.194993 53.47 173.194993 52.435 173.194993 51.325 174.244993 50.38 175.849993 50.38 177.049993 50.38 178.054993 50.905 178.579993 52.15L177.499993 52.63C177.274993 51.88 176.734993 51.325 175.834993 51.325 174.844993 51.325 174.349993 51.79 174.349993 52.36 174.349993 52.96 174.679993 53.245 175.744993 53.575L176.464993 53.8C177.679993 54.175 178.579993 54.715 178.579993 55.975 178.579993 57.295 177.484993 58.18 175.819993 58.18 174.124993 58.18 173.209993 57.25 172.804993 56.23zM180.453326 56.23L181.548326 55.72C181.833326 56.65 182.523326 57.205 183.468326 57.205 184.398326 57.205 185.043326 56.815 185.043326 56.155 185.043326 55.48 184.713326 55.24 183.483326 54.82L182.688326 54.55C181.473326 54.145 180.843326 53.47 180.843326 52.435 180.843326 51.325 181.893326 50.38 183.498326 50.38 184.698326 50.38 185.703326 50.905 186.228326 52.15L185.148326 52.63C184.923326 51.88 184.383326 51.325 183.483326 51.325 182.493326 51.325 181.998326 51.79 181.998326 52.36 181.998326 52.96 182.328326 53.245 183.393326 53.575L184.113326 53.8C185.328326 54.175 186.228326 54.715 186.228326 55.975 186.228326 57.295 185.133326 58.18 183.468326 58.18 181.773326 58.18 180.858326 57.25 180.453326 56.23zM203.339992 58L202.124992 58C202.139992 52.945 202.124992 50.875 202.199992 48.67 201.329992 51.205 201.029992 51.97 198.839992 58L197.804992 58C196.679992 54.91 195.434992 51.775 194.429992 48.715 194.489992 51.19 194.504992 52.87 194.504992 58L193.289992 58 193.289992 47.41 195.119992 47.41C196.214992 50.335 197.354992 53.26 198.344992 56.185 199.259992 53.38 199.829992 52.03 201.479992 47.41L203.339992 47.41 203.339992 58zM211.693325 55.735L212.743325 56.08C212.308325 57.43 211.093325 58.18 209.668325 58.18 207.358325 58.18 206.158325 56.605 206.158325 54.205 206.158325 51.88 207.553325 50.395 209.593325 50.395 211.633325 50.395 212.743325 51.805 212.758325 54.475L207.358325 54.475C207.358325 56.095 208.183325 57.175 209.698325 57.175 210.598325 57.175 211.393325 56.845 211.693325 55.735zM211.543325 53.545C211.438325 51.97 210.658325 51.37 209.563325 51.37 208.438325 51.37 207.538325 52.045 207.373325 53.545L211.543325 53.545zM221.441658 58L220.256658 58 220.256658 56.89C219.701658 57.67 218.966658 58.135 217.856658 58.135 216.131658 58.135 215.006658 56.68 215.006658 54.295 215.006658 51.895 216.371658 50.47 218.036658 50.47 219.281658 50.47 219.851658 50.935 220.256658 51.55L220.256658 47.41 221.441658 47.41 221.441658 58zM220.271658 54.415C220.271658 52.525 219.506658 51.49 218.216658 51.49 216.956658 51.49 216.236658 52.48 216.236658 54.31 216.236658 56.095 216.986658 57.115 218.156658 57.115 219.401658 57.115 220.271658 56.065 220.271658 54.415zM225.789991 58L224.604991 58 224.604991 50.59 225.789991 50.59 225.789991 58zM225.804991 48.745L224.589991 48.745 224.589991 47.41 225.804991 47.41 225.804991 48.745zM233.108324 53.455L233.108324 52.84C233.108324 51.88 232.598324 51.4 231.578324 51.4 230.438324 51.4 229.928324 51.88 229.838324 52.93L228.653324 52.795C228.773324 51.25 229.958324 50.395 231.638324 50.395 232.568324 50.395 233.258324 50.65 233.693324 51.13 234.098324 51.55 234.248324 52.18 234.248324 53.305L234.248324 55.69C234.248324 56.005 234.263324 56.47 234.293324 56.68 234.338324 56.995 234.548324 57.115 234.923324 57.115 235.013324 57.115 235.118324 57.1 235.208324 57.085L235.208324 57.985C235.013324 58.015 234.788324 58.03 234.593324 58.03 233.603324 58.03 233.228324 57.655 233.153324 56.89 232.643324 57.685 231.773324 58.12 230.693324 58.12 229.403324 58.12 228.383324 57.28 228.383324 56.035 228.383324 55.03 228.908324 54.43 229.763324 54.055 230.423324 53.77 231.728324 53.545 233.108324 53.455zM233.108324 54.715L233.108324 54.325C232.343324 54.355 231.068324 54.52 230.423324 54.805 229.808324 55.075 229.553324 55.45 229.553324 55.975 229.553324 56.77 230.108324 57.16 230.948324 57.16 231.938324 57.16 232.778324 56.53 233.018324 55.54 233.078324 55.285 233.108324 54.94 233.108324 54.715zM22.344 32L1.974 32 1.974 2.348 11.088 2.348 11.088 25.238 22.344 25.238 22.344 32zM54.6875 17.174C54.6875 27.884 48.1775 32.798 39.6095 32.798 30.1175 32.798 23.9855 27.254 23.9855 17.132 23.9855 7.472 30.0755 1.55 39.6515 1.55 48.7235 1.55 54.6875 7.22 54.6875 17.174zM45.2795 16.964C45.2795 11.714 42.8855 9.32 39.4415 9.32 35.7035 9.32 33.3515 11.84 33.3515 17.09 33.3515 22.466 35.8295 25.112 39.4835 25.112 42.8435 25.112 45.2795 22.886 45.2795 16.964zM60.151 2.348L74.557 2.348C78.127 2.348 80.689 2.6 82.243 3.356 84.469 4.448 85.939 6.8 85.939 9.824 85.939 12.806 84.511 15.032 81.067 16.418 84.931 17.216 86.863 19.652 86.863 23.516 86.863 26.414 85.477 28.892 83.377 30.32 81.529 31.58 79.051 32 74.683 32L60.151 32 60.151 2.348zM69.097 9.362L69.097 13.562 73.927 13.562C74.515 13.562 74.977 13.52 75.481 13.394 76.489 13.142 76.909 12.47 76.909 11.462 76.909 10.538 76.573 9.782 75.607 9.53 75.145 9.404 74.641 9.362 73.927 9.362L69.097 9.362zM69.097 20.282L69.097 24.986 73.843 24.986C74.683 24.986 75.481 24.902 75.985 24.776 77.161 24.44 77.497 23.642 77.497 22.634 77.497 21.584 77.161 20.828 76.027 20.492 75.481 20.324 74.683 20.282 73.843 20.282L69.097 20.282zM89.7225 27.212L96.3585 21.668C98.1645 24.104 100.8525 25.364 102.9525 25.364 105.5145 25.364 106.1025 24.524 106.1025 23.684 106.1025 22.718 105.5985 22.214 103.5825 21.542L98.4165 19.82C93.5865 18.224 91.3185 15.368 91.3185 10.874 91.3185 5.12 96.2325 1.592 103.2465 1.592 108.6645 1.592 113.0325 3.65 115.7625 6.926L109.5045 12.218C107.2785 9.656 105.0525 8.774 102.9105 8.774 101.2305 8.774 100.5585 9.488 100.5585 10.412 100.5585 11.252 100.9785 11.924 103.4145 12.68L107.6145 13.982C113.1165 15.662 115.7205 18.518 115.7205 23.096 115.7205 28.64 111.0165 32.84 102.9945 32.84 97.3245 32.84 92.4525 30.782 89.7225 27.212zM135.212 32L125.972 32 125.972 9.404 118.496 9.404 118.496 2.348 142.646 2.348 142.646 9.404 135.212 9.404 135.212 32zM171.2095 32L147.4795 32 147.4795 2.348 170.5375 2.348 170.5375 9.404 156.4675 9.404 156.4675 13.31 169.6135 13.31 169.6135 20.408 156.4675 20.408 156.4675 24.944 171.2095 24.944 171.2095 32zM204.351 32L194.019 32 188.349 21.752 185.661 21.752 185.661 32 176.589 32 176.589 2.348 190.533 2.348C194.439 2.348 197.085 2.726 198.807 3.65 201.873 5.288 203.133 7.85 203.133 11.714 203.133 16.208 200.949 18.938 197.043 20.282L204.351 32zM185.661 14.822L189.861 14.822C191.373 14.822 192.297 14.528 192.843 14.024 193.263 13.604 193.515 13.058 193.515 12.092 193.515 11.126 193.263 10.37 192.549 9.908 191.961 9.53 191.121 9.362 189.777 9.362L185.661 9.362 185.661 14.822zM236.3165 32L225.9845 32 220.3145 21.752 217.6265 21.752 217.6265 32 208.5545 32 208.5545 2.348 222.4985 2.348C226.4045 2.348 229.0505 2.726 230.7725 3.65 233.8385 5.288 235.0985 7.85 235.0985 11.714 235.0985 16.208 232.9145 18.938 229.0085 20.282L236.3165 32zM217.6265 14.822L221.8265 14.822C223.3385 14.822 224.2625 14.528 224.8085 14.024 225.2285 13.604 225.4805 13.058 225.4805 12.092 225.4805 11.126 225.2285 10.37 224.5145 9.908 223.9265 9.53 223.0865 9.362 221.7425 9.362L217.6265 9.362 217.6265 14.822z"/>
  </g>
</svg>
